<?xml version="1.0" encoding="UTF-8" standalone="no"?>
<!-- Created with Inkscape (http://www.inkscape.org/) -->

<svg
   xmlns:dc="http://purl.org/dc/elements/1.1/"
   xmlns:cc="http://creativecommons.org/ns#"
   xmlns:rdf="http://www.w3.org/1999/02/22-rdf-syntax-ns#"
   xmlns:svg="http://www.w3.org/2000/svg"
   xmlns="http://www.w3.org/2000/svg"
   version="1.1"
   width="1154.2257"
   height="1157.5458"
   id="svg2">
  <defs
     id="defs4" />
  <metadata
     id="metadata7">
    <rdf:RDF>
      <cc:Work
         rdf:about="">
        <dc:format>image/svg+xml</dc:format>
        <dc:type
           rdf:resource="http://purl.org/dc/dcmitype/StillImage" />
        <dc:title></dc:title>
      </cc:Work>
    </rdf:RDF>
  </metadata>
  <g
     transform="translate(-29.546022,-158.27111)"
     id="layer1">
    <ellipse
       cx="-1706.25"
       cy="-6.8245239"
       rx="725"
       ry="721.875"
       transform="matrix(0.76350599,0,0,0.76681119,1917.9944,752.47572)"
       id="path2997"
       style="fill:#000000;fill-opacity:1;stroke:#000000;stroke-width:39.20764923;stroke-linecap:round;stroke-linejoin:miter;stroke-miterlimit:4;stroke-opacity:1;stroke-dasharray:none" />
    <ellipse
       cx="-1706.25"
       cy="-6.8245239"
       rx="725"
       ry="721.875"
       transform="matrix(0.77051687,0,0,0.77385241,1917.8328,737.20943)"
       id="path2997-1"
       style="fill:#ffffff;fill-opacity:1;stroke:#000000;stroke-width:38.85090256;stroke-linecap:round;stroke-linejoin:miter;stroke-miterlimit:4;stroke-opacity:1;stroke-dasharray:none" />
    <g
       transform="translate(2.1898424,0)"
       id="g3884"
       style="fill:#000000;fill-opacity:1">
      <path
         d="M 514.19481,664.8729 590.21786,581.24053 546.2964,472.16361 622.1262,423.78152 605.41204,324.77154 449.38297,293.15295 379.58348,637.59453 z"
         id="path3773"
         style="fill:#000000;fill-opacity:1;stroke:#000000;stroke-width:19.52459335;stroke-linecap:butt;stroke-linejoin:miter;stroke-miterlimit:4;stroke-opacity:1;stroke-dasharray:none" />
      <path
         d="m 836.64362,678.72265 -214.09408,0.70775 57.57731,-97.25601 -65.03429,-97.96636 64.50319,-62.69229 -36.35501,-93.59836 192.2411,-0.6355 z"
         id="path3775"
         style="fill:#000000;fill-opacity:1;stroke:#000000;stroke-width:19.52459335;stroke-miterlimit:4;stroke-opacity:1;stroke-dasharray:none" />
    </g>
    <g
       transform="translate(-898.18077,1378.0617)"
       id="g3021">
      <text
         x="235.37119"
         y="22.835905"
         id="text3023"
         xml:space="preserve"
         style="font-size:32.55293274px;font-style:normal;font-weight:normal;text-align:start;text-anchor:start;fill:#000000;font-family:Special Elite" />
      <text
         x="288.17596"
         y="22.835905"
         id="text3025"
         xml:space="preserve"
         style="font-size:32.55293274px;font-style:normal;font-weight:normal;text-align:start;text-anchor:start;fill:#000000;font-family:Special Elite" />
      <text
         x="328.6796"
         y="22.835905"
         id="text3027"
         xml:space="preserve"
         style="font-size:32.55293274px;font-style:normal;font-weight:normal;text-align:start;text-anchor:start;fill:#000000;font-family:Special Elite" />
    </g>
    <text
       x="-570.67126"
       y="1122.4063"
       transform="translate(146.94068,90.614251)"
       id="text3037"
       xml:space="preserve"
       style="font-size:80px;font-style:normal;font-variant:normal;font-weight:normal;font-stretch:normal;text-align:start;line-height:125%;letter-spacing:0px;word-spacing:0px;writing-mode:lr-tb;text-anchor:start;fill:#000000;fill-opacity:1;stroke:none;font-family:Special Elite;-inkscape-font-specification:Special Elite"><tspan
         x="-570.67126"
         y="1122.4063"
         id="tspan3039" /></text>
    <g
       id="text3041"
       style="font-size:158.05773926px;font-style:normal;font-variant:normal;font-weight:normal;font-stretch:normal;text-align:start;line-height:125%;letter-spacing:0px;word-spacing:0px;writing-mode:lr-tb;text-anchor:start;fill:#000000;fill-opacity:1;stroke:none;font-family:Special Elite;-inkscape-font-specification:Special Elite">
      <path
         d="m 338.76779,809.23887 c -10e-5,1.54361 -0.54034,2.68197 -1.6207,3.41507 -1.08058,0.73325 -2.23823,1.09984 -3.47295,1.09977 -1.69799,7e-5 -3.22222,-0.0771 -4.57272,-0.23153 -1.35068,-0.15428 -2.68198,-0.23146 -3.99389,-0.23153 -0.69468,7e-5 -1.33139,0.0772 -1.91012,0.23153 -0.57891,0.15442 -1.2928,0.2316 -2.14165,0.23153 -1.15774,7e-5 -1.96809,-0.17358 -2.43107,-0.52095 -0.46314,-0.34721 -1.11914,-0.52086 -1.968,-0.52094 -1.23491,8e-5 -2.45044,0.13514 -3.6466,0.40518 -1.19631,0.27019 -2.45043,0.40525 -3.76236,0.40518 -1.46643,7e-5 -2.8749,-0.0771 -4.22542,-0.23153 -1.35066,-0.15428 -2.75913,-0.23146 -4.22542,-0.23153 -0.84901,7e-5 -1.65936,0.13513 -2.43106,0.40517 -0.77183,0.2702 -1.58219,0.40526 -2.43107,0.40518 -1.69794,8e-5 -2.8363,-0.0964 -3.41506,-0.28941 -0.57888,-0.19287 -1.29277,-0.28934 -2.14165,-0.28941 -0.61747,7e-5 -1.23488,0.13513 -1.85224,0.40517 -0.61747,0.2702 -1.31206,0.40526 -2.08377,0.40518 -0.849,8e-5 -1.54358,-0.23145 -2.08377,-0.69459 -0.69464,0.46314 -1.35064,0.69467 -1.968,0.69459 -0.92617,8e-5 -1.79441,-0.13498 -2.60472,-0.40518 -0.81039,-0.27004 -1.56287,-0.4051 -2.25741,-0.40517 -1.31205,7e-5 -2.60475,0.2509 -3.87813,0.75247 -1.27345,0.50172 -2.56616,0.75255 -3.87812,0.75247 -0.7718,8e-5 -1.4278,-0.0771 -1.96801,-0.23153 -0.54027,-0.15428 -1.04191,-0.23145 -1.50494,-0.23153 -0.84898,8e-5 -1.85227,0.0965 -3.00989,0.28941 -1.15768,0.19302 -2.31533,0.28949 -3.47295,0.28941 -0.84897,8e-5 -1.60144,-0.0578 -2.25741,-0.17364 -0.65603,-0.11569 -1.36991,-0.17357 -2.14166,-0.17365 -1.31202,8e-5 -2.6819,0.19302 -4.10965,0.57882 -1.42779,0.38596 -2.83626,0.5789 -4.22542,0.57883 -1.31202,7e-5 -2.37319,-0.36651 -3.18354,-1.09977 -0.81036,-0.7331 -1.21554,-1.79428 -1.21553,-3.18353 -10e-6,-1.54346 0.40517,-3.00981 1.21553,-4.39907 0.81035,-1.3891 2.14164,-2.08369 3.99389,-2.08377 1.54352,8e-5 2.99058,0.17373 4.34119,0.52094 1.35057,0.34738 2.68186,0.52103 3.99389,0.52094 0.61739,9e-5 1.17692,-0.0964 1.67859,-0.28941 0.50162,-0.19286 1.17692,-0.28933 2.02589,-0.28941 1.08044,8e-5 2.00656,0.25091 2.77836,0.75247 0.77173,0.50173 1.58209,0.75256 2.43106,0.75247 0.92609,9e-5 1.85221,-0.15427 2.77836,-0.46306 0.92608,-0.30862 1.96797,-0.46297 3.12565,-0.46306 0.84891,9e-5 1.73644,0.15444 2.6626,0.46306 0.92607,0.30879 1.8136,0.46315 2.66259,0.46306 3.39572,9e-5 6.7529,-0.17356 10.07155,-0.52094 3.31854,-0.34721 6.71431,-0.52086 10.18731,-0.52094 0.38582,8e-5 1.19618,0.11585 2.43107,0.34729 1.23476,0.23162 2.27664,0.34738 3.12565,0.3473 1.08041,8e-5 2.18017,-0.13498 3.2993,-0.40518 1.11899,-0.27003 2.45029,-0.40509 3.99389,-0.40518 0.54016,9e-5 0.96463,0.0387 1.27342,0.11577 0.92604,-0.46298 2.16086,-0.69451 3.70448,-0.69459 1.08039,8e-5 2.06439,0.058 2.952,0.17365 0.88745,0.11585 1.75569,0.17373 2.60471,0.17364 1.62063,9e-5 3.26063,-0.21215 4.92001,-0.6367 1.65921,-0.42439 3.41498,-0.63662 5.26731,-0.63671 0.77167,9e-5 1.6592,0.058 2.66259,0.17365 1.0032,0.11585 1.92932,0.36667 2.77836,0.75247 0.84884,0.38597 1.58202,0.90691 2.19954,1.56283 0.6173,0.65608 0.92601,1.48573 0.92611,2.48894 z m -18.17509,61.70272 c -9e-5,0.46308 -0.0966,0.84896 -0.28941,1.15765 -0.19303,0.30872 -0.2895,0.54025 -0.28942,0.69459 0.15427,0.30872 0.27004,0.63672 0.3473,0.984 0.0771,0.34731 0.11568,0.75249 0.11576,1.21553 -8e-5,1.77508 -0.2702,3.28002 -0.81035,4.51483 -0.54032,1.23484 -1.23491,2.37319 -2.08377,3.41507 -0.84903,1.04189 -1.75585,2.06448 -2.72048,3.06777 -0.96478,1.0033 -1.83302,2.12236 -2.60471,3.35718 -0.61749,10e-6 -1.2542,0.13506 -1.91012,0.40518 -0.65608,0.27012 -1.35067,0.57883 -2.08377,0.92612 -0.73325,0.3473 -1.48572,0.656 -2.25741,0.92612 -0.77184,0.27012 -1.62078,0.40518 -2.54683,0.40518 -1.08054,0 -2.00666,-0.21224 -2.77836,-0.63671 -0.77183,-0.42447 -1.46642,-0.63671 -2.08377,-0.63671 -0.2316,0 -0.46313,0.0193 -0.69459,0.0579 -0.23159,0.0386 -0.42454,0.0579 -0.57883,0.0579 l -0.92612,0 c -0.61747,0 -1.54359,-0.30871 -2.77835,-0.92612 -1.23489,-0.61741 -2.48901,-1.36988 -3.76236,-2.25742 -1.27347,-0.88752 -2.46971,-1.81364 -3.58872,-2.77836 -1.11911,-0.9647 -1.91017,-1.79435 -2.37318,-2.48894 l -1.38918,-0.57883 c -0.46311,-0.15434 -0.90687,-0.30869 -1.3313,-0.46306 -0.42451,-0.15434 -0.90687,-0.38587 -1.44706,-0.69459 l -1.50494,0.3473 c -1.62075,0.38589 -2.7784,1.06119 -3.47295,2.02589 -0.69463,0.96471 -1.31204,1.968 -1.85224,3.00988 -0.54027,1.04189 -1.1191,1.96801 -1.73647,2.77836 -0.61745,0.81036 -1.65934,1.21553 -3.12566,1.21553 -0.84897,0 -1.7558,-0.17364 -2.72047,-0.52094 -0.96474,-0.34729 -1.83298,-0.82965 -2.60471,-1.44706 -0.7718,-0.61741 -1.40851,-1.35059 -1.91013,-2.19953 -0.50167,-0.84894 -0.75249,-1.77506 -0.75247,-2.77836 -2e-5,-0.92611 0.21221,-1.69788 0.63671,-2.3153 0.42444,-0.6174 0.63668,-1.46635 0.63671,-2.54683 l 0,-0.81035 c 1.08044,-0.6174 1.8715,-1.38917 2.37318,-2.3153 0.50162,-0.92611 0.8875,-1.91011 1.15765,-2.95201 0.27008,-1.04187 0.5402,-2.08375 0.81035,-3.12565 0.27009,-1.04187 0.67526,-1.98728 1.21553,-2.83624 l 0,0.11576 c 0.30868,-0.69456 0.63668,-1.21551 0.98401,-1.56283 0.34726,-0.34727 0.67526,-0.65597 0.984,-0.92612 0.30867,-0.27009 0.61738,-0.54021 0.92612,-0.81035 0.30867,-0.27009 0.57879,-0.59809 0.81035,-0.984 l 0.92612,-1.38918 c 0.38585,-0.38586 0.75244,-0.81033 1.09977,-1.27342 0.34725,-0.46302 0.82961,-0.8875 1.44706,-1.27341 l 3.93601,-2.19953 -0.11577,0 c 1.54349,-1.00327 2.97126,-1.81362 4.28331,-2.43107 1.31195,-0.61737 2.64325,-1.09973 3.99389,-1.44706 1.35053,-0.34726 2.73971,-0.57879 4.16753,-0.69459 1.42771,-0.11573 3.02913,-0.17361 4.80425,-0.17365 0.84888,4e-5 1.60135,-0.21219 2.25742,-0.6367 0.65593,-0.42444 1.67852,-0.82961 3.06777,-1.21554 1.62064,-0.38584 3.12558,-0.67525 4.51483,-0.86823 1.38911,-0.1929 2.58534,-0.5402 3.58871,-1.04189 1.00322,-0.5016 1.79428,-1.33125 2.37319,-2.48894 0.57874,-1.15761 0.86815,-2.89408 0.86823,-5.20943 -8e-5,-0.69454 -0.0772,-1.42771 -0.23153,-2.19953 -2.00667,-1.23477 -3.5309,-2.33454 -4.57271,-3.2993 -1.04196,-0.96465 -2.04525,-1.75571 -3.00989,-2.37318 -0.96478,-0.61736 -2.08384,-1.09971 -3.35718,-1.44707 -1.27348,-0.34723 -3.14502,-0.52088 -5.6146,-0.52094 l -7.75626,0 c -0.54029,6e-5 -1.33134,0.15442 -2.37318,0.46306 -1.04193,0.30877 -2.06452,0.69465 -3.06777,1.15765 -1.00334,0.46312 -1.89087,0.98406 -2.66259,1.56283 -0.77181,0.57888 -1.1577,1.177 -1.15765,1.79436 -5e-5,1.31205 0.38584,2.64335 1.15765,3.99389 0.77172,1.35064 1.1576,2.7977 1.15765,4.34118 -5e-5,1.00334 -0.25087,1.8137 -0.75248,2.43107 -0.50169,0.61745 -1.1191,1.1191 -1.85223,1.50494 -0.73323,0.38593 -1.52428,0.65604 -2.37319,0.81035 -0.84898,0.1544 -1.65933,0.23158 -2.43106,0.23153 -2.54686,5e-5 -4.4184,-0.30866 -5.6146,-0.92612 -1.19627,-0.61737 -2.02592,-1.4856 -2.48895,-2.60471 -0.46309,-1.11901 -0.71391,-2.45031 -0.75247,-3.99389 -0.0386,-1.54348 -0.13509,-3.27995 -0.28941,-5.20942 2.93268,-3.93595 6.50209,-7.17736 10.70826,-9.72426 4.20608,-2.54676 8.85597,-3.82017 13.94967,-3.82024 1.31195,7e-5 2.91336,0.0387 4.80425,0.11577 1.89076,0.0772 3.83947,0.25089 5.84613,0.52094 2.00652,0.27018 3.97453,0.69466 5.90401,1.27341 1.92934,0.57889 3.66582,1.33136 5.20942,2.25742 0.46299,0.38595 0.77169,0.65606 0.92612,0.81035 0.15428,0.15442 0.28934,0.25089 0.40518,0.28942 0.11569,0.0387 0.25075,0.0772 0.40518,0.11576 0.15427,0.0386 0.42439,0.13512 0.81035,0.28941 1.23475,0.61748 2.29593,1.42783 3.18354,2.43107 0.88745,1.00335 1.63992,2.12241 2.25741,3.35718 0.61733,1.23488 1.08039,2.54688 1.38918,3.93601 0.30862,1.38923 0.46298,2.73982 0.46306,4.05177 -8e-5,2.00664 -0.32808,3.85888 -0.984,5.55672 -0.65608,1.69793 -1.79444,3.08711 -3.41506,4.16754 -0.23162,1.15769 -0.67538,2.06451 -1.3313,2.72047 -0.65608,0.65604 -1.09985,1.56287 -1.3313,2.72048 l -3.00989,1.15765 c -0.92619,0.38591 -1.75584,0.65603 -2.48894,0.81035 -0.73325,0.15439 -2.02596,0.23157 -3.87813,0.23153 -0.5403,4e-5 -0.94548,0.0579 -1.21553,0.17365 -0.27019,0.1158 -0.52101,0.27015 -0.75247,0.46306 -0.2316,0.19297 -0.50172,0.34733 -0.81036,0.46306 -0.30877,0.1158 -0.69465,0.17368 -1.15765,0.17365 -0.30877,3e-5 -0.59818,-0.0386 -0.86823,-0.11577 -0.27019,-0.0771 -0.5596,-0.11573 -0.86824,-0.11576 -0.5403,3e-5 -1.13842,0.13509 -1.79436,0.40518 -0.65606,0.27014 -1.29277,0.4052 -1.91012,0.40517 -0.61747,3e-5 -1.177,-0.0771 -1.67859,-0.23153 -0.50171,-0.15432 -1.06124,-0.2315 -1.67859,-0.23153 -0.77183,3e-5 -1.60147,0.21227 -2.48895,0.63671 -0.88758,0.4245 -1.75582,0.86827 -2.60471,1.3313 l -2.66259,1.38918 c -0.54029,0.23155 -1.11911,0.46308 -1.73648,0.69459 -0.61746,0.23155 -1.19628,0.48238 -1.73647,0.75247 -0.54028,0.27014 -1.00334,0.57885 -1.38918,0.92612 -0.38593,0.34732 -0.57887,0.79108 -0.57883,1.3313 -4e-5,0.3859 0.15431,0.96473 0.46306,1.73647 3.55008,0.54026 7.06161,1.60143 10.53461,3.18354 3.47289,1.58213 6.67572,3.41508 9.60849,5.49883 1.46629,0.23154 2.93265,0.34731 4.39907,0.3473 0.84888,10e-6 1.67852,-0.0579 2.48895,-0.17365 0.81028,-0.11575 1.56275,-0.40517 2.25741,-0.86824 0.30864,-0.77175 0.7717,-1.67858 1.38918,-2.72048 0.61734,-1.04186 1.31193,-2.02586 2.08377,-2.952 0.77169,-0.9261 1.60134,-1.69787 2.48895,-2.3153 0.88745,-0.61739 1.83286,-0.9261 2.83624,-0.92612 1.08039,2e-5 1.92933,0.28943 2.54683,0.86824 0.61733,0.57884 1.19615,1.17696 1.73647,1.79435 z m 0,-77.90981 c -0.6175,2.23822 -1.50503,3.6081 -2.6626,4.10966 -1.15773,0.50174 -2.46973,0.75256 -3.936,0.75247 l -2.08377,0 c -1.08055,9e-5 -2.12244,0.11585 -3.12566,0.34729 -1.00337,0.23162 -2.16101,0.34739 -3.47294,0.3473 -0.84902,9e-5 -1.67867,-0.0771 -2.48895,-0.23153 -0.81042,-0.15426 -1.56289,-0.23144 -2.25742,-0.23153 -2.08383,9e-5 -4.10972,0.0966 -6.07766,0.28941 -1.96806,0.19303 -3.99394,0.2895 -6.07766,0.28941 -1.54358,9e-5 -2.85558,-0.28932 -3.936,-0.86823 -1.08053,-0.57874 -1.85229,-0.86815 -2.3153,-0.86824 -0.30876,9e-5 -0.61746,0.0773 -0.92612,0.23153 -0.30876,0.15444 -0.65605,0.3088 -1.04189,0.46306 -1.15769,0.46315 -2.21887,0.75256 -3.18353,0.86823 -0.96475,0.11586 -2.02593,0.17374 -3.18354,0.17365 l -0.92612,0 c -0.84898,9e-5 -1.96804,-0.0771 -3.35718,-0.23153 -1.38922,-0.15426 -2.73981,-0.44367 -4.05178,-0.86823 -1.31203,-0.42438 -2.45038,-0.96462 -3.41506,-1.62071 -0.96474,-0.65591 -1.44709,-1.52415 -1.44706,-2.60472 -3e-5,-1.23472 0.32797,-2.21872 0.984,-2.952 0.65597,-0.73308 1.50491,-1.25402 2.54683,-1.56283 1.04185,-0.3086 2.1802,-0.50154 3.41506,-0.57882 1.23479,-0.0771 2.43103,-0.11567 3.58872,-0.11577 0.8489,10e-5 1.73643,0.0773 2.66259,0.23153 0.92608,0.15446 1.81361,0.50175 2.66259,1.04189 0.77173,-0.23143 1.77502,-0.3279 3.00989,-0.28942 1.23478,0.0387 2.39243,-0.0192 3.47295,-0.17364 1.08042,-0.15426 2.02584,-0.52084 2.83624,-1.09977 0.8103,-0.57872 1.21548,-1.60131 1.21553,-3.06777 -5e-5,-1.46625 -0.11581,-2.97119 -0.34729,-4.51483 -0.23158,-1.54343 -0.34735,-3.16413 -0.3473,-4.86213 -5e-5,-0.84883 0.0964,-1.40836 0.28942,-1.67859 0.19289,-0.27001 0.28936,-0.63659 0.28941,-1.09977 l 0,-0.23153 c -0.23158,-0.926 -0.40523,-2.31518 -0.52094,-4.16754 -0.11582,-1.85211 -0.21229,-3.78153 -0.28942,-5.78825 -0.0772,-2.00646 -0.11581,-3.89728 -0.11576,-5.67248 -5e-5,-1.77493 -5e-5,-3.04834 0,-3.82024 -5e-5,-0.84881 -0.1737,-1.79422 -0.52094,-2.83624 -0.34735,-1.04175 -0.521,-2.10292 -0.52095,-3.18354 l 0,-0.57882 c -0.54028,-0.30857 -1.08052,-0.46292 -1.6207,-0.46306 -1.1577,1.4e-4 -2.45041,0.17379 -3.87813,0.52094 -1.42781,0.34744 -2.97134,0.73332 -4.6306,1.15765 -1.65933,0.42461 -3.4344,0.8105 -5.32519,1.15765 -1.89086,0.34743 -3.91674,0.52108 -6.07765,0.52094 -1.69792,1.4e-4 -3.0871,-0.36645 -4.16754,-1.09977 -1.0805,-0.73303 -1.62074,-2.18009 -1.62071,-4.34118 -3e-5,-2.46951 0.61739,-4.09021 1.85224,-4.86213 1.2348,-0.77161 2.97127,-1.1575 5.20942,-1.15765 1.5435,1.5e-4 3.10633,0.0966 4.68848,0.28941 1.58208,0.1931 3.14491,0.28957 4.68848,0.28942 2.00655,1.5e-4 3.8202,-0.57868 5.44095,-1.73648 1.62066,-1.15749 3.00984,-2.62385 4.16754,-4.39907 l 0,0.11577 1.15765,-2.19954 c 0.30866,-0.23137 0.84889,-0.63654 1.62071,-1.21553 0.77171,-0.57866 1.60136,-1.13819 2.48895,-1.67859 0.88747,-0.54007 1.73641,-1.02243 2.54682,-1.44706 0.8103,-0.42431 1.44701,-0.63654 1.91013,-0.63671 0.61735,1.7e-4 1.25406,0.15452 1.91012,0.46306 0.65594,0.30887 1.27335,0.71405 1.85224,1.21553 0.57876,0.50181 1.06111,1.06134 1.44706,1.6786 0.38582,0.61757 0.57876,1.19639 0.57882,1.73647 -6e-5,1.00345 -0.11583,1.77522 -0.34729,2.3153 -0.0772,0.15451 -0.13513,0.34745 -0.17365,0.57882 -0.0387,0.23169 -0.0772,0.59828 -0.11576,1.09977 -0.0387,0.5018 -0.0773,1.19639 -0.11577,2.08377 -0.0387,0.88768 -0.0965,2.02604 -0.17365,3.41506 0.30865,0.61757 0.50159,1.25427 0.57883,1.91013 0.0771,0.65615 0.1157,1.37003 0.11576,2.14165 -6e-5,1.00344 -0.15441,1.89097 -0.46306,2.66259 -0.30877,0.77191 -0.46312,1.50509 -0.46306,2.19954 -6e-5,0.61755 0.0964,1.17708 0.28942,1.67859 0.19287,0.50178 0.28934,1.21567 0.28941,2.14165 -7e-5,1.00343 -0.13513,1.83308 -0.40518,2.48895 -0.27018,0.65613 -0.40524,1.33143 -0.40518,2.02588 -6e-5,0.69472 0.135,1.67872 0.40518,2.95201 0.27005,1.27354 0.40511,2.60484 0.40518,3.99389 -7e-5,2.46977 -0.2316,4.92013 -0.69459,7.35107 -0.46312,2.43118 -0.69465,4.88154 -0.69459,7.35108 -6e-5,0.46317 0.0771,0.96481 0.23153,1.50494 0.15429,0.54035 0.23147,1.11917 0.23153,1.73648 -6e-5,0.84905 -0.058,1.60152 -0.17365,2.25741 -0.11583,0.65611 -0.17371,1.36999 -0.17365,2.14165 -6e-5,1.08058 0.463,1.79446 1.38918,2.14165 0.92606,0.3474 1.89076,0.52105 2.89413,0.52095 2.23805,10e-5 4.51476,-0.0578 6.83013,-0.17365 2.31522,-0.11566 4.59193,-0.17355 6.83013,-0.17365 1.62063,10e-5 2.81686,0.3281 3.58871,0.984 0.77168,0.65611 1.35051,1.67869 1.73648,3.06778 z"
         id="path3020"
         style="font-size:237.08660889px" />
      <path
         d="m 547.95504,869.8997 c -1.3e-4,1.31203 -0.23166,2.54685 -0.69459,3.70448 -0.46319,1.15767 -0.88766,2.3539 -1.27341,3.58872 -0.30884,1.08048 -0.52107,1.96801 -0.63671,2.66259 -0.11589,0.6946 -0.28954,1.29272 -0.52094,1.79436 -0.23166,0.50165 -0.59825,0.96471 -1.09977,1.38918 -0.50177,0.42447 -1.29283,0.90683 -2.37318,1.44706 -2.31542,1.23483 -4.76578,2.48895 -7.35107,3.76236 -2.58554,1.27341 -5.19025,1.91012 -7.81414,1.91012 -2.23823,0 -4.34129,-0.52094 -6.30919,-1.56283 -1.9681,-1.04188 -3.78175,-2.19953 -5.44095,-3.47295 -1.65939,-1.2734 -3.16434,-2.45035 -4.51483,-3.53083 -1.35069,-1.08046 -2.48904,-1.6207 -3.41507,-1.62071 -1.00338,10e-6 -1.87162,0.27013 -2.60471,0.81036 -0.73327,0.54024 -1.46644,1.11907 -2.19953,1.73647 -0.73327,0.61742 -1.54362,1.19625 -2.43107,1.73648 -0.88761,0.54024 -1.98738,0.81036 -3.2993,0.81035 -1.08055,10e-6 -2.19961,0.19295 -3.35718,0.57883 -1.15773,0.38588 -2.31538,0.82965 -3.47295,1.33129 -1.15772,0.50165 -2.33466,1.0033 -3.53083,1.50495 -1.19631,0.50165 -2.29607,0.90682 -3.2993,1.21553 -3.47301,0.92612 -6.96525,1.46635 -10.47673,1.62071 -3.51159,0.15435 -7.04242,0.23153 -10.59249,0.23153 -0.92617,0 -2.35393,-0.0193 -4.2833,-0.0579 -1.92946,-0.0386 -3.87817,-0.23153 -5.84613,-0.57883 -1.96804,-0.34729 -3.70452,-0.90682 -5.20943,-1.67859 -1.50497,-0.77176 -2.25744,-1.85224 -2.25741,-3.24142 -3e-5,-0.3087 0.0386,-0.57882 0.11576,-0.81035 -0.54026,0.61741 -1.15768,1.11906 -1.85224,1.50494 -0.69461,0.38589 -1.46638,0.57883 -2.3153,0.57883 -1.23485,0 -2.73979,-0.84894 -4.51483,-2.54683 -1.77508,-1.69788 -3.47296,-3.66588 -5.09366,-5.90402 -1.62072,-2.2381 -3.0099,-4.45693 -4.16754,-6.65648 -1.15765,-2.19951 -1.73648,-3.83952 -1.73647,-4.92001 -10e-6,-0.84892 0.25082,-1.62068 0.75247,-2.3153 0.50164,-0.69456 0.75246,-1.46633 0.75247,-2.3153 -1e-5,-1.08044 -0.13506,-2.10303 -0.40517,-3.06777 -0.27013,-0.96468 -0.40519,-1.98726 -0.40518,-3.06777 -10e-6,-1.38914 0.27011,-2.87479 0.81035,-4.45695 0.54023,-1.58208 1.19623,-3.1642 1.96801,-4.74636 0.77175,-1.58208 1.58211,-3.12561 2.43106,-4.6306 0.84893,-1.5049 1.6207,-2.91337 2.3153,-4.22542 0.77175,-1.54348 1.85222,-2.77831 3.24142,-3.70448 1.38916,-0.92606 2.85551,-1.73642 4.39907,-2.43106 1.5435,-0.69453 3.08704,-1.38912 4.6306,-2.08377 1.5435,-0.69453 2.89409,-1.62065 4.05177,-2.77836 1.15761,1.31206 2.66256,1.96806 4.51483,1.968 1.92938,6e-5 3.8202,-0.28935 5.67248,-0.86823 1.8522,-0.57877 3.74302,-0.86818 5.67249,-0.86824 1.54348,6e-5 3.02913,0.15441 4.45695,0.46306 1.42771,0.30877 2.91336,0.46312 4.45695,0.46306 1.69782,6e-5 2.95194,-0.21218 3.76236,-0.63671 0.81029,-0.42441 1.83288,-1.17688 3.06777,-2.25742 1.23476,-1.0804 2.79758,-1.91005 4.68848,-2.48894 1.89076,-0.57876 3.85876,-1.04182 5.90401,-1.38918 2.0451,-0.34723 4.09028,-0.71382 6.13554,-1.09977 2.0451,-0.38581 3.87804,-0.94534 5.49884,-1.67859 1.62062,-0.73311 2.93262,-1.7364 3.93601,-3.00989 1.0032,-1.27334 1.50485,-3.0291 1.50494,-5.2673 -9e-5,-2.46957 -0.71397,-5.07428 -2.14165,-7.81414 -1.42786,-2.73968 -3.2608,-5.24792 -5.49884,-7.52472 -2.2382,-2.27661 -4.70785,-4.14814 -7.40895,-5.6146 -2.70126,-1.46625 -5.28667,-2.19943 -7.75625,-2.19953 -0.30878,10e-5 -0.61749,0.0387 -0.92612,0.11576 -0.30878,0.0773 -0.5789,0.11587 -0.81036,0.11577 -1.8523,0.30881 -3.93607,0.52104 -6.2513,0.6367 -2.31536,0.11587 -4.47631,0.46317 -6.48284,1.04189 -2.00665,0.57892 -3.70453,1.54363 -5.09366,2.89412 -1.38923,1.35069 -2.08382,3.33799 -2.08377,5.9619 -5e-5,1.54362 0.13501,3.06786 0.40518,4.57271 0.27007,1.50503 0.40513,3.02927 0.40518,4.57272 -5e-5,2.31538 -0.55958,4.24479 -1.6786,5.78825 -1.1191,1.5436 -2.54687,2.77843 -4.2833,3.70447 -1.73651,0.9262 -3.64663,1.5629 -5.73036,1.91013 -2.08381,0.34736 -4.0904,0.52101 -6.01978,0.52094 -2.31533,7e-5 -4.32192,-0.30864 -6.01978,-0.92612 -1.69791,-0.61734 -3.08708,-2.04511 -4.16754,-4.28331 -0.84896,-1.62063 -1.75578,-3.37639 -2.72047,-5.2673 -0.96473,-1.89074 -1.44708,-3.80086 -1.44706,-5.73036 -2e-5,-2.08368 0.36657,-4.03239 1.09976,-5.84613 0.73316,-1.81356 1.56281,-3.58862 2.48895,-5.32519 0.9261,-1.73638 1.83292,-3.47285 2.72048,-5.20942 0.8875,-1.73637 1.52421,-3.60791 1.91012,-5.6146 0.54021,-0.3086 1.29268,-0.61731 2.25741,-0.92612 0.96468,-0.3086 2.00657,-0.61731 3.12566,-0.92612 1.11903,-0.3086 2.1995,-0.59801 3.24142,-0.86824 1.04185,-0.27001 1.91008,-0.52083 2.60471,-0.75247 1.8522,-0.54013 3.64655,-1.17683 5.38307,-1.91012 1.73643,-0.73307 3.51149,-1.40836 5.32519,-2.02589 1.8136,-0.6173 3.62725,-1.15753 5.44095,-1.62071 1.81359,-0.46294 3.68513,-0.73306 5.6146,-0.81035 l 3.58871,-0.11577 c 3.31853,1.2e-4 6.7143,0.28953 10.18732,0.86824 3.47287,0.57894 6.86864,1.48576 10.18731,2.72047 3.31851,1.23494 6.46346,2.75918 9.43484,4.57272 2.97121,1.81376 5.61451,3.95541 7.9299,6.42495 1.69779,1.85234 3.10626,4.03258 4.22542,6.54072 1.11896,2.50834 2.00649,5.15164 2.6626,7.9299 0.65589,2.77845 1.11895,5.5761 1.38918,8.39296 0.27001,2.81703 0.40507,5.42173 0.40517,7.81413 -10e-5,3.24149 -0.0966,6.42503 -0.28941,9.55061 -0.19305,3.12572 -0.28952,6.30925 -0.28941,9.55061 -1.1e-4,3.08712 0.17354,6.15488 0.52094,9.20331 0.34719,3.04852 0.75236,6.097 1.21553,9.14543 0.46295,3.04851 0.86813,6.09699 1.21554,9.14543 0.34718,3.04851 0.52083,6.07769 0.52094,9.08755 0.15424,1.85226 0.40506,2.99061 0.75247,3.41507 0.34718,0.42448 0.71377,0.63672 1.09977,0.63671 1.69777,10e-6 3.06765,-0.52093 4.10965,-1.56283 1.04177,-1.04187 1.98718,-2.19952 2.83624,-3.47295 0.84883,-1.27339 1.77494,-2.45034 2.77836,-3.53083 1.00317,-1.08045 2.27659,-1.62069 3.82025,-1.62071 0.69446,2e-5 1.40834,0.0386 2.14165,0.11577 0.73305,0.0772 1.40834,0.25084 2.02588,0.52094 0.61729,0.27014 1.11893,0.65602 1.50495,1.15765 0.38575,0.50167 0.57869,1.17696 0.57882,2.02588 z m -38.08666,-28.82547 c -10e-5,-0.46301 -0.0194,-1.27336 -0.0579,-2.43106 -0.0387,-1.1576 -0.13515,-2.33454 -0.28941,-3.53083 -0.15445,-1.19618 -0.40527,-2.25736 -0.75247,-3.18354 -0.34739,-0.92606 -0.86833,-1.38912 -1.56283,-1.38918 -0.15444,6e-5 -0.34739,0.0579 -0.57882,0.17365 -0.23162,0.11582 -0.42457,0.17371 -0.57883,0.17365 -2.9328,1.62076 -5.44104,2.95206 -7.52472,3.99389 -2.08385,1.04194 -4.14832,1.89088 -6.19342,2.54683 -2.04526,0.65605 -4.2255,1.09982 -6.54072,1.33129 -2.31537,0.23158 -5.20949,0.34735 -8.68237,0.3473 -0.46313,5e-5 -1.73654,0.19299 -3.82025,0.57882 -2.08382,0.38594 -4.36053,0.8297 -6.83013,1.3313 -2.4697,0.5017 -4.785,1.00334 -6.9459,1.50494 -2.16098,0.5017 -3.51157,0.8297 -4.05177,0.98401 -1.00333,0.38593 -1.71722,0.77181 -2.14165,1.15765 -0.42451,0.38592 -0.75251,0.81039 -0.984,1.27341 -0.23157,0.4631 -0.4631,0.94546 -0.69459,1.44706 -0.23157,0.50169 -0.65604,1.02263 -1.27342,1.56283 -0.7718,0.61745 -1.60145,1.1191 -2.48894,1.50494 -0.88757,0.38593 -1.71721,0.96475 -2.48895,1.73648 -1.15768,1.15768 -2.23815,2.68192 -3.24142,4.57271 -1.00332,1.89086 -1.50497,3.68522 -1.50494,5.38307 -3e-5,2.0838 0.54021,3.93603 1.62071,5.55672 1.08044,1.62073 2.50821,3.00991 4.2833,4.16754 1.77503,1.15766 3.78162,2.16096 6.01978,3.00989 2.23808,0.84895 4.49549,1.50495 6.77225,1.968 2.27666,0.46307 4.47619,0.81037 6.5986,1.04189 2.1223,0.23154 3.95525,0.3473 5.49883,0.34729 1.85218,10e-6 4.05172,-0.13505 6.59861,-0.40518 2.54676,-0.2701 5.09358,-0.69457 7.64048,-1.27341 2.54676,-0.57881 4.93923,-1.36987 7.17743,-2.37318 2.23804,-1.00328 4.0131,-2.2767 5.32519,-3.82025 0.54015,-0.61739 0.92603,-1.17692 1.15765,-1.67859 0.23144,-0.50162 0.48226,-1.00327 0.75247,-1.50494 0.27003,-0.50163 0.57874,-1.02257 0.92612,-1.56283 0.34721,-0.54021 0.90674,-1.11903 1.67859,-1.73647 1.77497,-1.46633 3.14486,-3.08704 4.10965,-4.86213 0.96462,-1.77503 1.6785,-3.62727 2.14166,-5.55672 0.46296,-1.92938 0.73308,-3.93597 0.81035,-6.01978 0.0771,-2.08372 0.11567,-4.20608 0.11577,-6.36707 z"
         id="path3022"
         style="font-size:237.08660889px" />
      <path
         d="m 748.34417,833.78104 c -1.3e-4,3.31865 -0.34743,6.56006 -1.04189,9.72426 -0.69472,3.16428 -1.27354,6.36711 -1.73647,9.60849 -0.15448,1.08051 -0.25095,2.06451 -0.28941,2.952 -0.0387,0.88757 -0.13519,1.73651 -0.28942,2.54683 -0.15448,0.81039 -0.42459,1.62074 -0.81035,2.43107 -0.38601,0.81038 -0.96483,1.64003 -1.73648,2.48894 -1.00341,1.0805 -1.698,2.21885 -2.08376,3.41507 -0.38601,1.19626 -0.77189,2.45038 -1.15765,3.76236 -0.46318,1.31202 -0.98413,2.29602 -1.56283,2.952 -0.57894,0.65602 -1.19636,1.21555 -1.85224,1.6786 -0.65612,0.46307 -1.35071,0.90684 -2.08377,1.33129 -0.73329,0.42449 -1.48576,1.06119 -2.25742,1.91012 -0.46317,0.54025 -0.75258,1.08049 -0.86823,1.62071 -0.11588,0.54025 -0.21235,1.06119 -0.28942,1.56283 -0.0773,0.50166 -0.25093,0.98401 -0.52094,1.44706 -0.27023,0.46307 -0.79117,0.84895 -1.56282,1.15765 -1.23494,0.54024 -2.12247,1.13836 -2.6626,1.79436 -0.54034,0.656 -1.23493,1.40847 -2.08377,2.25742 -0.84904,0.84894 -1.94881,1.67859 -3.2993,2.48894 -1.35069,0.81035 -2.77846,1.52424 -4.2833,2.14165 -1.50504,0.61741 -3.02928,1.11906 -4.57272,1.50495 -1.54362,0.38588 -2.89421,0.57882 -4.05177,0.57882 -1.46644,0 -2.9135,-0.15436 -4.34118,-0.46306 -1.42786,-0.30871 -2.87492,-0.46306 -4.34119,-0.46306 -0.84902,0 -1.48573,0.13506 -1.91012,0.40518 -0.42455,0.27011 -0.79114,0.55953 -1.09977,0.86824 -0.30878,0.3087 -0.63678,0.59811 -0.984,0.86823 -0.34737,0.27012 -0.86831,0.40517 -1.56283,0.40518 -1.31207,-10e-6 -3.24149,-0.52095 -5.78824,-1.56283 -2.5469,-1.04188 -5.22878,-2.19953 -8.04567,-3.47294 -2.817,-1.27342 -5.53748,-2.43107 -8.16143,-3.47295 -2.62405,-1.04188 -4.63064,-1.56283 -6.01977,-1.56283 -1.23488,0 -2.21888,0.44377 -2.95201,1.3313 -0.73322,0.88753 -1.33134,2.00659 -1.79436,3.35718 -0.4631,1.35059 -0.7911,2.81694 -0.984,4.39907 -0.19298,1.58211 -0.30875,3.06776 -0.34729,4.45695 -0.0386,1.38917 -0.0386,2.54682 0,3.47295 0.0385,0.9261 0.0578,1.38916 0.0579,1.38918 -4e-5,0.77175 -0.1351,1.2734 -0.40518,1.50494 -0.27016,0.23151 -0.63675,0.34728 -1.09977,0.3473 -0.30874,-2e-5 -0.61745,-0.0193 -0.92612,-0.0579 -0.30874,-0.0386 -0.65603,-0.0965 -1.04188,-0.17364 -4e-5,0.9261 0.17361,1.92939 0.52094,3.00989 0.34726,1.08045 0.77173,2.2188 1.27342,3.41506 0.50161,1.19621 0.98396,2.37316 1.44706,3.53083 0.46302,1.15762 0.81031,2.2381 1.04188,3.24142 0.5402,2.46962 1.09973,4.24468 1.67859,5.32519 0.57879,1.08043 1.33126,1.81361 2.25742,2.19953 0.92607,0.38585 2.08372,0.55949 3.47295,0.52094 1.38913,-0.0386 3.16419,0.0579 5.32519,0.28942 1.00324,0.15431 2.08371,0.36655 3.24142,0.6367 1.15759,0.27008 2.19947,0.69455 3.12565,1.27342 0.92606,0.57878 1.69782,1.29267 2.3153,2.14165 0.61735,0.8489 0.92605,1.89078 0.92612,3.12565 -7e-5,2.54678 -0.75254,4.36043 -2.25742,5.44096 -1.505,1.08042 -3.41512,1.62065 -5.73036,1.6207 -3.1643,-5e-5 -6.30924,-0.23158 -9.43485,-0.69458 -3.12569,-0.46312 -6.30923,-0.69465 -9.5506,-0.69459 -3.39581,-6e-5 -6.77228,0.19289 -10.12944,0.57882 -3.3572,0.38583 -6.69509,0.57877 -10.01367,0.57882 -0.84895,-5e-5 -2.0259,-0.1544 -3.53083,-0.46305 -1.50495,-0.30876 -3.00989,-0.75253 -4.51483,-1.3313 -1.50495,-0.57888 -2.81695,-1.27347 -3.93601,-2.08377 -1.11906,-0.8104 -1.67859,-1.71723 -1.67859,-2.72048 0,-0.69463 0.40518,-1.36993 1.21553,-2.02588 0.81035,-0.65605 1.73647,-1.21558 2.77836,-1.6786 1.04188,-0.4631 2.10306,-0.82968 3.18354,-1.09976 1.08046,-0.27016 1.9294,-0.40522 2.54683,-0.40518 1.38916,-4e-5 2.68187,-0.21228 3.87812,-0.63671 1.19622,-0.42451 2.37316,-0.86827 3.53083,-1.33129 1.15763,-0.4631 2.31528,-0.90687 3.47295,-1.3313 1.15763,-0.42451 2.39245,-0.63674 3.70448,-0.63671 0.69456,-2.93274 1.13833,-5.86545 1.3313,-8.79813 0.19291,-2.93274 0.28938,-5.86545 0.28941,-8.79814 -3e-5,-2.08379 -0.0193,-4.16755 -0.0579,-6.25131 -0.0386,-2.08378 -0.0579,-4.16754 -0.0579,-6.2513 -2e-5,-4.09037 0.28939,-8.14214 0.86824,-12.15532 0.5788,-4.01318 0.86821,-8.10354 0.86824,-12.27109 -3e-5,-2.54681 -0.0965,-5.09363 -0.28941,-7.64048 -0.19298,-2.5468 -0.36662,-5.09363 -0.52095,-7.64049 -0.23156,-0.30867 -0.50167,-1.33126 -0.81035,-3.06777 -0.30874,-1.73644 -0.59815,-3.64656 -0.86824,-5.73037 -0.27014,-2.08372 -0.48238,-4.07102 -0.63671,-5.96189 -0.15438,-1.89078 -0.23155,-3.1449 -0.23153,-3.76236 -2e-5,-0.84889 0.13504,-1.60136 0.40518,-2.25742 0.27009,-0.65594 0.5595,-1.23477 0.86824,-1.73647 0.30868,-0.50159 0.59809,-0.94536 0.86824,-1.3313 0.27009,-0.38582 0.40514,-0.73312 0.40517,-1.04188 -3e-5,-0.0771 -0.11579,-0.34724 -0.34729,-0.81036 -0.23156,-0.463 -0.48238,-1.04182 -0.75247,-1.73647 -0.27015,-0.69453 -0.52097,-1.4663 -0.75248,-2.3153 -0.23155,-0.84888 -0.34732,-1.69782 -0.34729,-2.54683 -3e-5,-2.46958 0.28938,-4.93923 0.86824,-7.40896 0.57879,-2.46957 0.8682,-4.93922 0.86823,-7.40895 -3e-5,-3.31851 -1.19626,-6.21263 -3.58871,-8.68237 -1.15767,-1.15756 -2.08379,-2.04509 -2.77836,-2.6626 -0.69461,-0.61732 -1.3892,-1.06108 -2.08377,-1.33129 -0.69461,-0.27003 -1.50496,-0.46297 -2.43106,-0.57883 -0.92614,-0.11567 -2.19955,-0.28932 -3.82024,-0.52094 -0.84896,-0.0771 -2.0259,-0.32791 -3.53084,-0.75247 -1.50495,-0.42438 -2.9906,-0.94532 -4.45695,-1.56283 -1.46636,-0.61732 -2.75906,-1.35049 -3.87812,-2.19953 -1.11906,-0.84885 -1.67859,-1.77497 -1.67859,-2.77836 0,-1.3119 0.61741,-2.45026 1.85224,-3.41507 1.23482,-0.9646 2.68188,-1.73637 4.34118,-2.3153 1.65929,-0.57871 3.33788,-1.00319 5.03578,-1.27341 1.69787,-0.27001 3.04846,-0.40507 4.05177,-0.40518 1.08046,1.1e-4 2.16093,0.0966 3.24142,0.28941 1.08045,0.19305 2.00657,0.67541 2.77836,1.44706 0.84892,-0.84883 1.8908,-1.40836 3.12565,-1.67859 1.2348,-0.27001 2.43104,-0.40506 3.58871,-0.40517 3.31857,1.1e-4 5.86539,0.50175 7.64049,1.50494 1.77502,1.0034 3.1835,2.10317 4.22542,3.2993 1.04184,1.19634 1.89079,2.29611 2.54683,3.2993 0.65596,1.0034 1.48561,1.50505 2.48895,1.50495 0.61736,10e-5 1.21548,-0.11567 1.79435,-0.3473 0.57878,-0.23143 1.1769,-0.50155 1.79436,-0.81035 1.62066,-0.77167 4.05172,-1.71708 7.29319,-2.83624 3.24136,-1.11896 6.67572,-2.19943 10.30308,-3.24142 3.62723,-1.04178 7.10018,-1.91002 10.41885,-2.60471 3.31851,-0.69448 5.82675,-1.04178 7.52472,-1.04189 0.84885,1.1e-4 2.06439,0.21235 3.64659,0.63671 1.58203,0.42458 3.3378,0.96482 5.26731,1.62071 1.92932,0.65611 3.93591,1.42787 6.01978,2.3153 2.08366,0.88763 4.01308,1.79446 5.78824,2.72047 1.77496,0.92622 3.31849,1.83305 4.6306,2.72048 1.31189,0.88763 2.19942,1.67869 2.66259,2.37318 0.84883,1.38928 1.75566,2.58551 2.72048,3.58871 0.96459,1.00339 2.2573,1.77516 3.87813,2.3153 0.46294,0.61751 0.75235,1.27351 0.86823,1.96801 0.11565,0.69468 0.17353,1.42785 0.17365,2.19953 l 0,2.19953 c -1.2e-4,1.54362 0.27,2.73986 0.81036,3.58872 0.54011,0.84902 1.11893,1.56291 1.73647,2.14165 0.61729,0.5789 1.19611,1.11914 1.73647,1.62071 0.54012,0.50172 0.81023,1.21561 0.81036,2.14165 -1.3e-4,0.54031 -0.15448,1.02267 -0.46306,1.44706 -0.30883,0.42455 -0.46319,0.86831 -0.46306,1.3313 -1.3e-4,1.15772 0.26999,2.33466 0.81035,3.53083 0.54011,1.19631 1.11894,2.50831 1.73648,3.93601 0.61728,1.42783 1.19611,2.95207 1.73647,4.57271 0.54011,1.62077 0.81023,3.39583 0.81036,5.32519 z m -53.02035,-49.31587 c -8e-5,-0.38577 -0.19302,-0.77166 -0.57882,-1.15765 -0.38596,-0.38577 -0.77184,-0.57871 -1.15765,-0.57882 -0.77184,1.1e-4 -1.2542,0.40528 -1.44706,1.21553 -0.19302,0.81046 -0.28949,1.52434 -0.28942,2.14165 -7e-5,-0.15425 0.0385,-0.23142 0.11577,-0.23153 0.15428,1.1e-4 0.27004,0.0387 0.34729,0.11577 l -0.46306,0.23153 c 0.54017,10e-5 1.25405,-0.0964 2.14165,-0.28941 0.88746,-0.19284 1.33122,-0.67519 1.3313,-1.44707 z m 39.36008,52.90458 c -1.1e-4,-2.31524 -0.30882,-4.57265 -0.92612,-6.77225 -0.61752,-2.19947 -1.38929,-4.32182 -2.3153,-6.36707 -0.92623,-2.04511 -1.96811,-4.03241 -3.12565,-5.96189 -1.15776,-1.92934 -2.31541,-3.82017 -3.47295,-5.67248 -0.30881,-0.46299 -0.50175,-0.98393 -0.57882,-1.56283 -0.0773,-0.57875 -0.11587,-1.15757 -0.11577,-1.73648 -10e-5,-0.57874 -0.058,-1.15756 -0.17364,-1.73647 -0.11587,-0.57874 -0.3667,-1.09968 -0.75248,-1.56283 -0.61751,-0.6945 -1.19634,-1.09968 -1.73647,-1.21553 -0.54034,-0.11568 -1.06128,-0.21215 -1.56283,-0.28941 -0.50175,-0.0771 -1.04198,-0.27003 -1.62071,-0.57883 -0.57892,-0.30862 -1.13845,-1.0032 -1.67859,-2.08376 -0.38598,-0.6945 -1.21563,-1.46627 -2.48895,-2.3153 -1.2735,-0.84885 -2.66268,-1.65921 -4.16753,-2.43107 -1.50504,-0.77167 -2.97139,-1.40838 -4.39907,-1.91012 -1.42785,-0.50155 -2.52762,-0.75238 -3.2993,-0.75247 -1.54362,9e-5 -3.06785,0.3281 -4.57272,0.984 -1.50502,0.6561 -3.02926,0.9841 -4.57271,0.984 -1.08055,10e-5 -2.06455,-0.19284 -2.95201,-0.57882 -0.8876,-0.38579 -1.73654,-0.79097 -2.54683,-1.21553 -0.81042,-0.42438 -1.64007,-0.82956 -2.48894,-1.21554 -0.84901,-0.38578 -1.73654,-0.57872 -2.6626,-0.57882 l -0.57882,0 c 0.15429,0.77186 0.23146,1.38928 0.23153,1.85224 -7e-5,0.69468 -0.15442,1.25421 -0.46306,1.67859 -0.30877,0.42457 -0.71395,0.79115 -1.21553,1.09977 -0.50171,0.3088 -1.04195,0.59821 -1.62071,0.86823 -0.57889,0.27021 -1.09983,0.55963 -1.56283,0.86824 -0.69465,0.84904 -1.06124,1.69798 -1.09977,2.54683 -0.0386,0.84903 -0.44382,1.2735 -1.21553,1.27342 -0.54029,8e-5 -0.96476,-0.0771 -1.27341,-0.23153 -6e-5,0.54032 -0.15441,0.9262 -0.46306,1.15764 -0.30876,0.23162 -0.65606,0.42456 -1.04189,0.57883 -0.38593,0.15444 -0.77182,0.32809 -1.15765,0.52094 -0.38593,0.19303 -0.61746,0.52103 -0.69459,0.984 -1.00334,0.0773 -1.92946,0.67538 -2.77836,1.79436 -0.84899,1.11914 -1.58216,2.52761 -2.19953,4.22542 -0.61746,1.69796 -1.15769,3.58879 -1.62071,5.67248 -0.4631,2.08384 -0.84899,4.10973 -1.15765,6.07766 -0.30875,1.96807 -0.54028,3.78172 -0.69459,5.44096 -0.15439,1.65935 -0.23157,2.91347 -0.23153,3.76236 -4e-5,2.77841 0.17361,5.53747 0.52094,8.27719 0.34726,2.73982 0.5209,5.49888 0.52095,8.27719 -5e-5,2.08381 -0.0579,4.16758 -0.17365,6.25131 -0.11581,2.0838 -0.25087,4.20616 -0.40518,6.36707 1.92937,2.0838 3.78161,4.16756 5.55672,6.25131 1.77501,2.08379 3.64654,3.95532 5.6146,5.6146 1.96795,1.65931 4.14818,3.04849 6.54072,4.16754 2.39241,1.11907 5.17077,1.71719 8.33507,1.79435 1.23476,10e-6 2.46959,0.15437 3.70448,0.46306 1.23475,0.30872 2.46958,0.61743 3.70448,0.92612 1.23475,0.30872 2.45028,0.59813 3.6466,0.86824 1.19615,0.27013 2.41168,0.40519 3.64659,0.40518 1.15757,10e-6 2.39239,-0.25082 3.70448,-0.75247 1.31191,-0.50164 2.60462,-1.13835 3.87813,-1.91013 1.27332,-0.77175 2.48885,-1.6014 3.64659,-2.48894 1.15756,-0.88752 2.12226,-1.75576 2.89413,-2.60471 0.61731,-0.69458 1.36978,-1.19622 2.25741,-1.50495 0.88743,-0.30869 1.6399,-0.77175 2.25742,-1.38918 0.46296,-0.46304 0.77166,-0.96469 0.92612,-1.50494 0.15425,-0.54022 0.28931,-1.08045 0.40518,-1.62071 0.11566,-0.54022 0.2893,-1.06116 0.52094,-1.56283 0.23142,-0.50162 0.69448,-0.94539 1.38918,-1.33129 1.46625,-0.77175 2.39236,-1.33128 2.77836,-1.6786 0.38577,-0.34726 0.57871,-0.98397 0.57882,-1.91012 l 0,-2.19953 c -1.1e-4,-0.77174 0.19283,-1.33127 0.57883,-1.67859 0.38577,-0.34727 0.81024,-0.69456 1.27341,-1.04189 0.46295,-0.34726 0.88742,-0.81032 1.27341,-1.38918 0.38577,-0.57879 0.57872,-1.56279 0.57883,-2.952 -1.1e-4,-1.00326 -0.0773,-1.98726 -0.23153,-2.95201 -0.15447,-0.96467 -0.23164,-1.94867 -0.23153,-2.95201 -1.1e-4,-1.00325 0.17353,-1.92937 0.52094,-2.77835 0.34718,-0.8489 0.73307,-1.65925 1.15765,-2.43107 0.42436,-0.77172 0.81024,-1.52419 1.15765,-2.25741 0.34718,-0.73313 0.52083,-1.52419 0.52094,-2.37319 z"
         id="path3024"
         style="font-size:237.08660889px" />
      <path
         d="m 908.21554,784.58094 c -1.5e-4,1.54364 -0.30885,2.95211 -0.92612,4.22542 -0.61756,1.27351 -0.92626,2.60481 -0.92612,3.99389 -1.4e-4,0.3088 0.0191,0.57892 0.0579,0.81035 0.0384,0.23163 0.0963,0.50175 0.17364,0.81036 l -1.04188,0 -0.69459,0 c -1.77521,9e-5 -3.51168,0.40527 -5.20942,1.21553 -1.69803,0.81045 -3.47309,1.21563 -5.32519,1.21553 -1.92955,10e-5 -3.35732,-0.81026 -4.2833,-2.43106 -1.08061,0.23162 -2.37331,0.59821 -3.87813,1.09977 -1.50507,0.50174 -3.0486,1.06127 -4.6306,1.67859 -1.58224,0.6175 -3.08718,1.2735 -4.51483,1.968 -1.42788,0.69468 -2.56624,1.31209 -3.41507,1.85224 l -1.6207,3.35718 c -2.23824,1.00339 -4.18695,2.41186 -5.84613,4.22543 -1.65941,1.81373 -2.48906,3.99396 -2.48895,6.54071 l 0,0.81036 c -1.38928,0.15443 -2.50834,0.71396 -3.35718,1.67859 -0.84905,0.96478 -1.62081,2.06455 -2.3153,3.2993 -0.69469,1.2349 -1.36999,2.39254 -2.02589,3.47295 -0.6561,1.08054 -1.40857,1.81371 -2.25742,2.19953 -1.54362,0.69466 -2.52762,1.79442 -2.952,3.29931 -0.42457,1.505 -0.6368,3.02924 -0.63671,4.57271 -9e-5,2.46971 0.30861,5.05512 0.92612,7.75625 0.54014,2.31535 1.56273,4.59205 3.06777,6.83013 1.50485,2.23816 3.22203,4.36052 5.15154,6.36708 1.92931,2.00662 3.9552,3.93603 6.07766,5.78824 2.12225,1.85227 4.03237,3.55015 5.73037,5.09366 0.77165,0.69461 1.50483,1.48567 2.19953,2.37318 0.69447,0.88755 1.42765,1.69791 2.19953,2.43107 0.77165,0.73319 1.62059,1.3506 2.54683,1.85223 0.926,0.50167 1.96788,0.75249 3.12566,0.75248 l 0.46306,0 1.04188,0 0.69459,0 c 1.92929,10e-6 3.76223,0.27013 5.49883,0.81035 1.73635,0.54025 3.60788,0.81037 5.6146,0.81036 0.61728,1e-5 1.33116,0.0193 2.14166,0.0579 0.81021,0.0386 1.60127,0.13507 2.37318,0.28941 0.77162,0.15437 1.48551,0.42449 2.14165,0.81036 0.65586,0.38589 1.09962,0.92613 1.3313,1.6207 0.077,0.30872 0.1735,0.7139 0.28941,1.21554 0.11562,0.50166 0.26997,0.98401 0.46306,1.44706 0.19279,0.46307 0.42432,0.86824 0.69459,1.21553 0.26997,0.3473 0.63656,0.52095 1.09976,0.52094 0.23139,10e-6 0.50151,-0.0579 0.81036,-0.17364 0.30856,-0.11576 0.57868,-0.25082 0.81035,-0.40518 -0.38603,0.61742 -0.61756,1.27342 -0.69459,1.968 -0.0773,0.6946 -0.11591,1.38919 -0.11576,2.08377 -1.5e-4,1.0033 0.0577,1.96801 0.17365,2.89412 0.11561,0.92612 0.1735,1.89083 0.17364,2.89413 -1.4e-4,0.38588 -0.0194,0.86823 -0.0579,1.44706 -0.0387,0.57882 -0.1545,1.15765 -0.34729,1.73647 -0.19309,0.57882 -0.44392,1.08047 -0.75248,1.50495 -0.30885,0.42446 -0.73332,0.6367 -1.27341,0.63671 -0.84909,-1e-5 -1.67874,-0.23154 -2.48895,-0.69459 -0.81049,-0.46307 -1.64014,-0.6946 -2.48894,-0.69459 -0.4632,-1e-5 -0.90697,0.19293 -1.3313,0.57882 -0.42461,0.38588 -0.96485,0.79105 -1.62071,1.21553 -0.65614,0.42447 -1.52437,0.82964 -2.60471,1.21554 -1.08061,0.38587 -2.54696,0.57881 -4.39907,0.57882 -1.77519,-1e-5 -3.53096,-0.13507 -5.2673,-0.40518 -1.7366,-0.27012 -3.49237,-0.57883 -5.26731,-0.92612 -1.77518,-0.3473 -3.53095,-0.6753 -5.2673,-0.984 -1.73659,-0.30871 -3.49236,-0.46307 -5.26731,-0.46306 -1.85234,-10e-6 -3.66599,0.328 -5.44095,0.984 -1.77516,0.656 -3.58881,0.984 -5.44095,0.98401 -1.0034,-10e-6 -1.89093,-0.25084 -2.6626,-0.75248 -0.77186,-0.50165 -1.50504,-1.04189 -2.19953,-1.62071 -0.69468,-0.57883 -1.40857,-1.13836 -2.14165,-1.67859 -0.73327,-0.54024 -1.60151,-0.88753 -2.60471,-1.04188 -1.46645,-0.15436 -2.52762,-0.55954 -3.18354,-1.21553 -0.65609,-0.65601 -0.98409,-1.75577 -0.984,-3.29931 -9e-5,-1.77505 0.32791,-3.47294 0.984,-5.09365 0.65592,-1.6207 1.3505,-3.18353 2.08377,-4.68848 0.73309,-1.50493 1.42768,-2.99058 2.08377,-4.45695 0.65591,-1.46634 0.98391,-2.89411 0.984,-4.28331 -9e-5,-0.9261 -0.0966,-1.8908 -0.28941,-2.89412 -0.19303,-1.00327 -0.48245,-1.9101 -0.86824,-2.72048 -0.38597,-0.81032 -0.92621,-1.48562 -1.62071,-2.02588 -0.69467,-0.54021 -1.54362,-0.81033 -2.54683,-0.81036 -0.30879,3e-5 -0.84902,0.0772 -1.62071,0.23153 -0.46314,-0.54021 -0.86832,-1.27338 -1.21553,-2.19953 -0.34738,-0.92609 -0.73326,-1.79433 -1.15765,-2.60471 -0.42455,-0.81032 -0.94549,-1.52421 -1.56282,-2.14165 -0.6175,-0.61738 -1.38926,-0.92609 -2.3153,-0.92612 -1.00338,3e-5 -1.89091,0.48239 -2.6626,1.44706 -0.77184,0.96474 -1.46643,2.04521 -2.08377,3.24142 -0.61748,1.19626 -1.23489,2.29603 -1.85223,3.2993 -0.61749,1.00332 -1.27349,1.50497 -1.96801,1.50494 -1.00336,0.92615 -2.12242,2.04521 -3.35718,3.35719 -1.23489,1.31202 -1.85231,2.73979 -1.85224,4.2833 -7e-5,0.92614 0.32793,1.91014 0.984,2.952 0.65594,1.0419 1.36982,2.14167 2.14165,3.29931 0.7717,1.15766 1.48558,2.3346 2.14165,3.53083 0.65594,1.19624 0.98394,2.41177 0.98401,3.64659 -7e-5,0.38589 -0.0194,0.90683 -0.0579,1.56283 -0.0387,0.656 -0.13513,1.3313 -0.28941,2.02589 -0.15442,0.69459 -0.34736,1.33129 -0.57882,1.91012 -0.2316,0.57882 -0.54031,0.984 -0.92612,1.21553 -0.46313,0.3087 -1.02266,0.50164 -1.6786,0.57882 -0.65606,0.0772 -1.29277,0.17365 -1.91012,0.28942 -0.61747,0.11576 -1.15771,0.3087 -1.62071,0.57882 -0.46312,0.27012 -0.69465,0.79106 -0.69459,1.56283 -6e-5,0.0772 0.0192,0.15435 0.0579,0.23153 0.0385,0.0772 0.0578,0.19293 0.0579,0.34729 -0.5403,-0.46306 -1.42783,-0.73318 -2.66259,-0.81035 -1.23489,-0.0772 -2.16101,-0.11577 -2.77836,-0.11577 -5.09371,0 -10.16807,0.25082 -15.22309,0.75247 -5.05511,0.50165 -10.12947,0.75247 -15.22309,0.75248 -1.31203,-1e-5 -3.00992,-0.0386 -5.09366,-0.11577 -2.08379,-0.0772 -4.14826,-0.36659 -6.19343,-0.86824 -2.04519,-0.50165 -3.80096,-1.27341 -5.2673,-2.31529 -1.46637,-1.04189 -2.19954,-2.48895 -2.19954,-4.34119 0,-0.84894 0.13506,-1.69788 0.40518,-2.54683 0.27011,-0.84894 0.59811,-1.65929 0.984,-2.43106 0.92611,-1.77506 2.18023,-3.12565 3.76236,-4.05178 1.58211,-0.9261 3.28,-1.5821 5.09366,-1.968 1.81363,-0.38587 3.68516,-0.5981 5.6146,-0.63671 1.92939,-0.0386 3.74304,-0.0965 5.44095,-0.17364 1.69786,-0.0772 3.18351,-0.21223 4.45696,-0.40518 1.27337,-0.19293 2.1802,-0.67528 2.72047,-1.44706 1.62067,-2.16093 3.06773,-4.32187 4.34119,-6.48284 1.27337,-2.16092 2.66255,-4.18681 4.16754,-6.07766 1.50489,-1.8908 3.26066,-3.55009 5.2673,-4.97789 2.00654,-1.42774 4.47619,-2.45032 7.40896,-3.06777 0.54017,-1.08044 0.94535,-2.04515 1.21553,-2.89413 0.27006,-0.8489 0.54018,-1.65925 0.81035,-2.43106 0.27006,-0.77172 0.61736,-1.54349 1.04189,-2.3153 0.42441,-0.77172 1.13829,-1.62066 2.14165,-2.54683 0.84888,-0.77172 1.4277,-1.62066 1.73647,-2.54683 0.30864,-0.92607 0.463,-1.92936 0.46306,-3.00989 -6e-5,-1.15759 -0.17371,-2.37312 -0.52094,-3.64659 -0.34736,-1.27336 -0.82971,-2.4696 -1.44706,-3.58872 -0.61748,-1.119 -1.38924,-2.12229 -2.3153,-3.00988 -0.92618,-0.88747 -1.96806,-1.56277 -3.12565,-2.02589 l 0,-0.57883 0,-0.23153 c -6e-5,-0.84887 0.27006,-1.54346 0.81035,-2.08376 0.54018,-0.54017 0.8103,-1.23476 0.81036,-2.08377 -1.23489,-1.00323 -2.58548,-1.79429 -4.05178,-2.37318 -1.46641,-0.57876 -2.85558,-1.4084 -4.16754,-2.48895 -1.08052,-0.84887 -1.92946,-1.92934 -2.54682,-3.24142 -0.61747,-1.31192 -1.46641,-2.43098 -2.54683,-3.35718 -2.00664,-1.69781 -3.95535,-3.41498 -5.84613,-5.15154 -1.89087,-1.73639 -3.18358,-3.87804 -3.87813,-6.42496 -0.46309,0.15445 -0.84898,0.23162 -1.15765,0.23153 -1.46639,9e-5 -2.93274,-0.40508 -4.39907,-1.21553 -1.46638,-0.81026 -2.89415,-1.40838 -4.2833,-1.79436 -1.54356,-0.46296 -3.60803,-0.88743 -6.19342,-1.27341 -2.58544,-0.38579 -5.13226,-0.94532 -7.64049,-1.67859 -2.50825,-0.73308 -4.66919,-1.77496 -6.48284,-3.12566 -1.81365,-1.35048 -2.72048,-3.22202 -2.72047,-5.6146 -10e-6,-1.54342 0.92611,-2.72036 2.77836,-3.53083 1.85223,-0.81024 3.99388,-1.36977 6.42495,-1.67859 2.43105,-0.30859 4.82352,-0.46295 7.17743,-0.46306 2.35386,1.1e-4 4.07104,1.1e-4 5.15154,0 1.00327,1.1e-4 1.85221,0.11588 2.54683,0.3473 0.69456,0.23164 1.27338,0.48246 1.73647,0.75247 0.46303,0.27023 0.81032,0.52105 1.04188,0.75247 0.2315,0.23164 0.46303,0.34741 0.69459,0.3473 0.38586,1.1e-4 0.59809,-0.27001 0.63671,-0.81036 0.0386,-0.54012 0.48232,-0.88742 1.3313,-1.04188 1.77503,-0.3086 3.68515,-0.52083 5.73036,-0.63671 2.04514,-0.11565 3.95526,-0.17353 5.73037,-0.17365 1.62066,1.2e-4 3.16419,0.28953 4.6306,0.86824 1.4663,0.57894 3.00983,0.86835 4.63059,0.86824 1.38913,1.1e-4 2.7976,-0.11566 4.22542,-0.3473 1.42771,-0.23142 2.83618,-0.34718 4.22542,-0.34729 2.08371,1.1e-4 3.99383,0.63682 5.73037,1.91012 1.7364,1.27352 2.60464,3.06788 2.60471,5.38307 -7e-5,1.46646 -0.46313,2.79775 -1.38918,3.99389 -0.92619,1.19634 -1.96807,2.39257 -3.12565,3.58871 -1.15772,1.19634 -2.1996,2.43116 -3.12566,3.70448 -0.92618,1.27351 -1.38924,2.72057 -1.38918,4.34119 -6e-5,1.23491 0.61736,2.75915 1.85224,4.57271 1.23477,1.81373 2.70112,3.55021 4.39907,5.20942 1.69782,1.65938 3.45359,3.08715 5.26731,4.28331 1.81357,1.19631 3.29922,1.79443 4.45695,1.79435 1.23474,8e-5 2.75898,-0.67522 4.57271,-2.02588 1.81357,-1.35052 3.56934,-2.93264 5.26731,-4.74637 1.69779,-1.81356 3.14486,-3.6658 4.34118,-5.55671 1.19615,-1.89074 1.79427,-3.37639 1.79436,-4.45695 -9e-5,-0.92603 -0.32809,-1.83286 -0.984,-2.72048 -0.6561,-0.88744 -1.36998,-1.79426 -2.14165,-2.72048 -0.77186,-0.92602 -1.48574,-1.94861 -2.14166,-3.06777 -0.65608,-1.11896 -0.98408,-2.41167 -0.984,-3.87812 -8e-5,-2.39237 0.79098,-4.34108 2.37318,-5.84613 1.58203,-1.50484 3.49215,-2.70107 5.73037,-3.58872 2.23802,-0.88741 4.59191,-1.50483 7.06166,-1.85223 2.46955,-0.34719 4.5919,-0.52083 6.36707,-0.52095 1.85213,1.2e-4 3.47284,0.17376 4.86213,0.52095 1.38906,0.3474 2.68177,0.75258 3.87813,1.21553 1.19612,0.46317 2.31518,0.86835 3.35718,1.21553 1.04176,0.3474 2.14153,0.52105 3.2993,0.52094 1.46623,1.1e-4 2.97117,-0.15424 4.51483,-0.46306 1.54341,-0.30859 2.95188,-0.63659 4.22542,-0.984 1.27328,-0.34718 2.33446,-0.67518 3.18354,-0.984 0.84881,-0.3086 1.35045,-0.46295 1.50494,-0.46306 1.00316,1.1e-4 2.06434,0.25093 3.18354,0.75247 1.11892,0.50176 2.23798,1.13847 3.35718,1.91012 1.11892,0.77188 2.1608,1.60153 3.12566,2.48895 0.96456,0.88764 1.83279,1.6787 2.60471,2.37318 z"
         id="path3026"
         style="font-size:237.08660889px" />
      <path
         d="m 985.31501,861.68039 c -7e-5,2.77839 -0.67536,4.90074 -2.02588,6.36707 -1.35066,1.46638 -2.85561,2.62403 -4.51484,3.47295 -1.65936,0.84896 -3.18359,1.56285 -4.57271,2.14165 -1.38924,0.57885 -2.08383,1.40849 -2.08377,2.48895 l 0.69459,0.92612 c 0.30865,10e-6 0.90676,0.0579 1.79435,0.17365 0.88747,0.11578 1.77501,0.28942 2.6626,0.52094 0.88747,0.23154 1.67853,0.50166 2.37318,0.81035 0.69452,0.30872 1.04182,0.65602 1.04188,1.04189 -0.0772,0.30872 -0.23159,0.55954 -0.46306,0.75247 -0.23159,0.19295 -0.46312,0.3666 -0.69459,0.52094 -0.61747,0.46307 -1.1963,0.73319 -1.73647,0.81036 -0.5403,0.0772 -1.00336,0.17365 -1.38918,0.28941 -0.38594,0.11577 -0.73324,0.3473 -1.04188,0.69459 -0.30877,0.3473 -0.57889,1.06119 -0.81036,2.14165 -0.23159,0.92613 -0.65606,1.60142 -1.27341,2.02589 -0.61747,0.42447 -1.25418,0.77177 -1.91012,1.04188 -0.65606,0.27012 -1.25418,0.55954 -1.79436,0.86824 -0.54029,0.30871 -0.81041,0.81036 -0.81036,1.50494 l 0,0.23153 c -1.77511,-1.312 -3.74311,-1.968 -5.90401,-1.968 -2.23817,0 -4.4377,0.36659 -6.5986,1.09977 -2.16098,0.73317 -4.36052,1.09976 -6.5986,1.09976 -1.85227,0 -3.85886,-0.54023 -6.01978,-1.62071 -2.16097,-1.08047 -4.16756,-2.45035 -6.01978,-4.10965 -1.85226,-1.65929 -3.39579,-3.51153 -4.63059,-5.55672 -1.23485,-2.04517 -1.85226,-4.07105 -1.85224,-6.07766 -2e-5,-0.54022 0.13504,-1.02257 0.40517,-1.44706 0.27011,-0.42445 0.59811,-0.82963 0.98401,-1.21553 -0.3859,-1.00328 -0.84896,-1.65928 -1.38918,-1.96801 -0.54026,-0.30868 -1.0612,-0.54021 -1.56283,-0.69459 -0.50166,-0.15433 -0.92613,-0.40515 -1.27341,-0.75247 -0.34731,-0.34727 -0.52096,-1.06115 -0.52095,-2.14165 -10e-6,-1.54351 -0.0965,-3.02915 -0.28941,-4.45695 -0.19295,-1.42774 -0.28942,-2.8748 -0.28941,-4.34118 -10e-6,-0.84891 0.0579,-1.69786 0.17365,-2.54683 0.11575,-0.84891 0.34728,-1.60138 0.69459,-2.25742 0.34728,-0.65596 0.82963,-1.1962 1.44706,-1.62071 0.6174,-0.42443 1.42775,-0.63667 2.43106,-0.63671 l 0.57883,0 c -0.61743,-0.8489 -1.11908,-1.79431 -1.50495,-2.83624 -0.3859,-1.04184 -0.57884,-2.10302 -0.57882,-3.18353 -2e-5,-0.15431 0.0193,-0.32796 0.0579,-0.52095 0.0386,-0.19289 0.17363,-0.28936 0.40518,-0.28941 0.38586,5e-5 0.75245,0.0965 1.09976,0.28941 0.34728,0.19299 0.71387,0.32805 1.09977,0.40518 l 1.04189,-0.46306 c 0.38586,-0.38583 0.5788,-0.77172 0.57882,-1.15765 -2e-5,-0.38583 -0.11578,-0.69454 -0.34729,-0.92612 -0.23155,-0.23148 -0.38591,-0.54018 -0.46306,-0.92612 0.30868,-0.38583 0.75245,-0.63665 1.33129,-0.75247 0.57881,-0.11571 1.06116,-0.21218 1.44706,-0.28941 1.00328,-0.23148 1.67857,-0.5016 2.02589,-0.81036 0.34727,-0.30865 0.55951,-0.67524 0.63671,-1.09976 0.0772,-0.42442 0.17362,-0.8296 0.28941,-1.21554 0.11574,-0.38582 0.48233,-0.73312 1.09977,-1.04188 0.46303,-0.23147 1.35056,-0.463 2.66259,-0.69459 1.31197,-0.23147 2.72045,-0.463 4.22542,-0.69459 1.50491,-0.23147 2.97127,-0.42441 4.39907,-0.57882 1.42773,-0.1543 2.45032,-0.27006 3.06777,-0.3473 0.46302,0.849 1.40843,1.48571 2.83624,1.91012 1.42773,0.42453 3.06773,0.75253 4.92001,0.98401 1.85219,0.23158 3.82019,0.46311 5.90401,0.69458 2.08372,0.23159 3.99384,0.61747 5.73037,1.15765 1.73641,0.54029 3.16418,1.31206 4.2833,2.3153 1.119,1.00335 1.67853,2.35394 1.67859,4.05178 l -0.11576,1.04188 -0.46306,0.11577 c -0.84901,4e-5 -1.62077,-0.27008 -2.3153,-0.81036 -0.69465,-0.54019 -1.46642,-0.81031 -2.3153,-0.81035 -0.38594,-0.54019 -1.08053,-0.44372 -2.08377,0.28941 -1.00335,0.73322 -1.92947,1.58217 -2.77836,2.54683 -0.84899,0.96475 -1.42782,1.85228 -1.73647,2.66259 -0.30876,0.8104 0.0771,1.02263 1.15765,0.63671 0.54018,-0.15431 1.06112,-0.40514 1.56283,-0.75247 0.50159,-0.34726 1.06112,-0.5209 1.67859,-0.52095 0.30865,5e-5 0.69453,0.21228 1.15765,0.63671 0.463,0.42451 1.02253,0.86828 1.67859,1.3313 0.65594,0.4631 1.36982,0.90686 2.14165,1.3313 0.7717,0.42451 1.69782,0.63674 2.77836,0.6367 1.00323,4e-5 1.96793,-0.23149 2.89412,-0.69459 0.30864,1.7751 0.65593,3.55016 1.04189,5.32519 0.38581,1.77509 0.57875,3.58874 0.57882,5.44095 z m -17.71204,6.13554 c -0.46311,-0.92609 -1.1577,-1.58209 -2.08376,-1.968 l 0.11576,0.23153 c -5e-5,0.30873 -0.1737,0.59814 -0.52094,0.86824 -0.34735,0.27014 -0.75252,0.52096 -1.21553,0.75247 -0.46311,0.23155 -0.86829,0.46308 -1.21554,0.69459 -0.34734,0.23155 -0.52098,0.42449 -0.52094,0.57882 -4e-5,0.23156 0.23148,0.38591 0.69459,0.46306 0.46301,0.0772 0.77172,0.11579 0.92612,0.11577 0.54019,2e-5 1.31195,-0.13504 2.3153,-0.40518 1.00324,-0.2701 1.50489,-0.71386 1.50494,-1.3313 z m -8.68237,-5.32518 c -1.23487,0.0772 -2.4504,0.25085 -3.64659,0.52094 -1.19628,0.27014 -2.4504,0.4052 -3.76236,0.40518 -1.31204,2e-5 -2.70122,-0.30868 -4.16754,-0.92612 l 0,4.97789 c 0.69456,-0.38586 1.38914,-0.63668 2.08377,-0.75247 0.69455,-0.11574 1.42773,-0.17363 2.19953,-0.17365 l 2.43107,0 c 2.70114,2e-5 4.32184,-1.35057 4.86212,-4.05177 z m -16.43862,13.77603 0,-0.3473 c -3e-5,-0.9261 -0.25085,-1.62069 -0.75247,-2.08377 -0.50168,-0.46304 -1.09979,-0.84892 -1.79436,-1.15765 -0.69461,-0.30869 -1.42779,-0.5981 -2.19953,-0.86823 -0.77179,-0.2701 -1.42779,-0.63669 -1.96801,-1.09977 0.23151,4.3219 2.43105,6.52144 6.59861,6.5986 z"
         id="path3028"
         style="font-size:237.08660889px" />
    </g>
    <g
       transform="matrix(0.71064677,0,0,0.71064677,92.322569,1271.1798)"
       id="g3049">
      <g
         id="text3051"
         style="font-size:15.0013504px;font-style:normal;font-weight:normal;text-align:start;text-anchor:start;fill:#000000;font-family:Calibri Light">
        <path
           d="m 285.81195,-295.19333 c -0.19532,0.58592 -0.42725,1.04979 -0.6958,1.3916 -0.26856,0.34178 -0.58595,0.61034 -0.95215,0.80567 -0.36622,0.19529 -0.80567,0.32957 -1.31836,0.40283 -0.5127,0.0732 -1.13526,0.10984 -1.86767,0.10986 -0.73243,-2e-5 -1.3794,-0.0733 -1.94092,-0.21972 -0.56153,-0.14651 -1.01319,-0.35403 -1.35498,-0.62256 -0.3418,-0.26858 -0.54932,-0.61037 -0.62256,-1.02539 -0.0732,-0.41506 0.0122,-0.89113 0.25635,-1.42823 l 44.67773,-120.70312 c 0.19527,-0.58583 0.41499,-1.0497 0.65918,-1.3916 0.2441,-0.34169 0.54927,-0.61025 0.91553,-0.80567 0.36616,-0.1952 0.81782,-0.32948 1.35498,-0.40283 0.53706,-0.0731 1.17182,-0.10976 1.9043,-0.10986 0.73237,10e-5 1.36713,0.0733 1.90429,0.21972 0.53706,0.1466 0.96431,0.35411 1.28174,0.62256 0.31733,0.26866 0.52485,0.61046 0.62256,1.02539 0.0976,0.41515 0.0488,0.89122 -0.14648,1.42823 z"
           id="path3891"
           style="font-size:150px" />
        <path
           d="m 431.34418,-313.65036 c -7e-5,0.29297 -0.0733,0.56152 -0.21973,0.80566 -0.14655,0.24414 -0.37848,0.43946 -0.6958,0.58594 -0.31745,0.14649 -0.7569,0.26856 -1.31836,0.36621 -0.56159,0.0977 -1.25739,0.14649 -2.0874,0.14649 -0.87897,0 -1.59918,-0.0488 -2.16065,-0.14649 -0.56158,-0.0976 -1.00103,-0.21972 -1.31836,-0.36621 -0.31744,-0.14648 -0.54937,-0.3418 -0.6958,-0.58594 -0.14654,-0.24414 -0.21978,-0.51269 -0.21972,-0.80566 l 0,-39.33105 c -6e-5,-4.10152 -0.31744,-7.43404 -0.95215,-9.99756 -0.63482,-2.56343 -1.58697,-4.76069 -2.85645,-6.5918 -1.26958,-1.831 -2.89311,-3.24701 -4.8706,-4.24805 -1.97759,-1.00091 -4.28471,-1.5014 -6.92139,-1.50146 -3.36918,6e-5 -6.73832,1.19635 -10.10742,3.58887 -3.36917,2.39263 -6.90921,5.90825 -10.62012,10.54687 l 0,47.53418 c -2e-5,0.29297 -0.0733,0.56152 -0.21972,0.80566 -0.14651,0.24414 -0.37844,0.43946 -0.69581,0.58594 -0.3174,0.14649 -0.75685,0.26856 -1.31835,0.36621 -0.56155,0.0977 -1.28176,0.14649 -2.16065,0.14649 -0.83009,0 -1.52589,-0.0488 -2.0874,-0.14649 -0.56154,-0.0976 -1.0132,-0.21972 -1.35498,-0.36621 -0.34181,-0.14648 -0.57375,-0.3418 -0.6958,-0.58594 -0.12209,-0.24414 -0.18312,-0.51269 -0.18311,-0.80566 l 0,-98.73047 c -10e-6,-0.29287 0.061,-0.56142 0.18311,-0.80566 0.12205,-0.24404 0.35399,-0.45156 0.6958,-0.62256 0.34178,-0.1708 0.79344,-0.29287 1.35498,-0.36621 0.56151,-0.0731 1.25731,-0.10976 2.0874,-0.10987 0.87889,1.1e-4 1.5991,0.0367 2.16065,0.10987 0.5615,0.0733 1.00095,0.19541 1.31835,0.36621 0.31737,0.171 0.5493,0.37852 0.69581,0.62256 0.14646,0.24424 0.2197,0.51279 0.21972,0.80566 l 0,41.38184 c 3.61326,-4.00385 7.22654,-6.94574 10.83985,-8.82569 3.61324,-1.87981 7.22652,-2.81975 10.83984,-2.81982 4.34566,7e-5 8.00776,0.73249 10.98633,2.19726 2.97846,1.46492 5.38324,3.44245 7.21435,5.93262 1.831,2.4903 3.14935,5.39557 3.95508,8.71582 0.8056,3.32037 1.20843,7.32427 1.2085,12.01172 z"
           id="path3893"
           style="font-size:150px" />
        <path
           d="m 551.24164,-350.19821 c -1.1e-4,1.75785 -0.46398,2.96634 -1.3916,3.62549 -0.92784,0.65921 -1.83116,0.9888 -2.70996,0.98877 l -45.19043,0 c -6e-5,4.10159 0.40277,7.81252 1.20849,11.13281 0.80561,3.32033 2.13617,6.16457 3.9917,8.53271 1.8554,2.36818 4.2846,4.18702 7.2876,5.45655 3.00285,1.26953 6.67717,1.9043 11.02295,1.90429 3.07608,1e-5 5.83487,-0.26854 8.27637,-0.80566 2.44131,-0.5371 4.55312,-1.13525 6.33544,-1.79443 1.78213,-0.65917 3.24697,-1.25732 4.39454,-1.79444 1.14735,-0.5371 1.96522,-0.80565 2.45361,-0.80566 0.29286,1e-5 0.54921,0.0733 0.76904,0.21972 0.21962,0.1465 0.40273,0.37843 0.54932,0.69581 0.14638,0.31739 0.25624,0.72022 0.32959,1.20849 0.0731,0.48829 0.10976,1.09864 0.10986,1.83106 -1e-4,0.3418 -0.0245,0.67139 -0.0732,0.98877 -0.0489,0.31738 -0.10997,0.61035 -0.18311,0.8789 -0.0733,0.26856 -0.18321,0.52491 -0.32959,0.76904 -0.14658,0.24415 -0.3419,0.48829 -0.58593,0.73243 -0.24425,0.24414 -1.00108,0.67139 -2.27051,1.28174 -1.26963,0.61035 -2.92979,1.2207 -4.98047,1.83105 -2.05088,0.61035 -4.43124,1.15967 -7.14111,1.64795 -2.71005,0.48828 -5.62753,0.73242 -8.75244,0.73242 -3.17391,0 -6.09139,-0.28076 -8.75245,-0.84228 -2.6612,-0.56153 -5.06598,-1.3916 -7.21435,-2.49024 -2.1485,-1.09863 -4.065,-2.4414 -5.74951,-4.02832 -1.68463,-1.58691 -3.13727,-3.40575 -4.35791,-5.45654 -1.61138,1.9043 -3.34478,3.6377 -5.2002,5.20019 -1.85552,1.56251 -3.82085,2.91749 -5.89599,4.06494 -2.07524,1.14747 -4.27251,2.02637 -6.5918,2.63672 -2.31937,0.61035 -4.7974,0.91553 -7.43408,0.91553 -3.46683,0 -6.57962,-0.45166 -9.33838,-1.35498 -2.75881,-0.90332 -5.09035,-2.19726 -6.99463,-3.88184 -1.90431,-1.68456 -3.36915,-3.72313 -4.39453,-6.11572 -1.0254,-2.39256 -1.5381,-5.07811 -1.53809,-8.05664 -10e-6,-3.66209 0.75683,-6.84812 2.27051,-9.5581 1.51366,-2.70993 3.66209,-4.96823 6.44531,-6.77491 2.78319,-1.8066 6.12791,-3.16158 10.03418,-4.06494 3.90622,-0.90328 8.25192,-1.35494 13.03711,-1.35498 l 10.54688,0 0,-5.71289 c -5e-5,-2.83198 -0.29302,-5.33442 -0.87891,-7.50732 -0.58599,-2.1728 -1.53813,-3.99165 -2.85645,-5.45655 -1.3184,-1.46478 -3.02738,-2.56341 -5.12695,-3.29589 -2.09965,-0.73236 -4.66312,-1.09857 -7.69043,-1.09864 -2.92972,7e-5 -5.56643,0.35407 -7.91015,1.06201 -2.34378,0.70807 -4.40676,1.50153 -6.18897,2.38038 -1.78224,0.87896 -3.25929,1.67242 -4.43115,2.38037 -1.17189,0.70806 -2.00197,1.06206 -2.49024,1.06201 -0.29298,5e-5 -0.54932,-0.0488 -0.76904,-0.14649 -0.21974,-0.0976 -0.40284,-0.2807 -0.54932,-0.54931 -0.14649,-0.2685 -0.25635,-0.6103 -0.32959,-1.02539 -0.0732,-0.41498 -0.10987,-0.91547 -0.10986,-1.50147 -10e-6,-1.02533 0.0732,-1.8432 0.21973,-2.45361 0.14647,-0.61029 0.52489,-1.22064 1.13525,-1.83106 0.61034,-0.61028 1.69677,-1.3305 3.25928,-2.16064 1.56248,-0.83001 3.35691,-1.59905 5.3833,-2.30713 2.02634,-0.70794 4.2114,-1.28167 6.55518,-1.72119 2.34372,-0.43938 4.68746,-0.65911 7.03125,-0.65918 3.27144,7e-5 6.12788,0.29304 8.56933,0.87891 2.44136,0.586 4.54097,1.42829 6.29883,2.52685 1.75776,1.0987 3.2104,2.40485 4.35791,3.91846 1.14741,1.51373 2.08735,3.17389 2.81982,4.98047 2.3437,-3.95502 5.59076,-6.99457 9.74121,-9.11866 4.15033,-2.12395 8.81341,-3.18596 13.98926,-3.18603 4.98039,7e-5 9.22843,0.83015 12.74414,2.49023 3.51553,1.66023 6.4086,3.89411 8.6792,6.70166 2.27041,2.80768 3.93056,6.06695 4.98047,9.77784 1.0497,3.71098 1.5746,7.61723 1.57471,11.71875 z m -8.93555,-2.56348 c 0.0487,-3.51558 -0.34189,-6.65278 -1.17187,-9.41162 -0.83018,-2.75874 -2.07529,-5.10248 -3.73536,-7.03125 -1.66024,-1.92865 -3.72323,-3.4057 -6.18896,-4.43115 -2.46591,-1.02533 -5.28573,-1.53802 -8.45947,-1.53809 -3.32039,7e-5 -6.25008,0.62262 -8.78907,1.86768 -2.53913,1.24518 -4.67535,2.89312 -6.40869,4.94385 -1.73346,2.05083 -3.06402,4.4312 -3.9917,7.14111 -0.92779,2.71001 -1.4649,5.52983 -1.61132,8.45947 z m -47.38769,21.45996 c -0.63482,-1.80662 -1.09869,-3.96726 -1.39161,-6.48193 -0.29301,-2.51462 -0.4395,-4.89499 -0.43945,-7.14111 l -11.93848,0 c -3.51565,3e-5 -6.59182,0.31741 -9.22851,0.95214 -2.63675,0.6348 -4.83401,1.56253 -6.5918,2.78321 -1.75783,1.22073 -3.06398,2.68557 -3.91845,4.39453 -0.85451,1.70901 -1.28176,3.66213 -1.28174,5.85937 -2e-5,3.80861 1.20847,6.84816 3.62549,9.11866 2.41696,2.27051 5.82272,3.40576 10.21728,3.40576 3.46676,0 6.89694,-1.01318 10.29053,-3.03955 3.39351,-2.02636 6.94575,-5.31005 10.65674,-9.85108 z"
           id="path3895"
           style="font-size:150px" />
        <path
           d="m 605.58734,-408.20602 c -5e-5,0.68368 -0.0367,1.233 -0.10986,1.64795 -0.0733,0.41513 -0.17095,0.74472 -0.29297,0.98876 -0.12212,0.24424 -0.2686,0.41514 -0.43945,0.5127 -0.17095,0.0977 -0.37847,0.14658 -0.62256,0.14648 -0.39067,10e-5 -0.85454,-0.12197 -1.3916,-0.36621 -0.53716,-0.24404 -1.20854,-0.5126 -2.01416,-0.80566 -0.80571,-0.29288 -1.75786,-0.56143 -2.85645,-0.80566 -1.09867,-0.24405 -2.38041,-0.36612 -3.84521,-0.36622 -2.05082,10e-5 -3.78422,0.32969 -5.2002,0.98877 -1.41604,0.65928 -2.5635,1.70908 -3.44238,3.14942 -0.87893,1.44052 -1.50149,3.29598 -1.86768,5.5664 -0.36623,2.2706 -0.54934,5.01717 -0.54931,8.23975 l 0,7.83691 16.25976,0 c 0.34176,7e-5 0.63473,0.0733 0.87891,0.21973 0.2441,0.14655 0.46382,0.37849 0.65918,0.6958 0.19527,0.31745 0.34175,0.70808 0.43945,1.17188 0.0976,0.46393 0.14644,1.01325 0.14648,1.64795 -4e-5,1.22076 -0.19535,2.13629 -0.58593,2.74658 -0.39067,0.61041 -0.90336,0.91559 -1.53809,0.91553 l -16.25976,0 0,60.4248 c -3e-5,0.29297 -0.0733,0.56152 -0.21973,0.80566 -0.14651,0.24414 -0.37844,0.43946 -0.6958,0.58594 -0.31741,0.14649 -0.76907,0.26856 -1.35498,0.36621 -0.58596,0.0977 -1.29397,0.14649 -2.12403,0.14649 -0.83009,0 -1.52589,-0.0488 -2.0874,-0.14649 -0.56154,-0.0976 -1.0132,-0.21972 -1.35498,-0.36621 -0.34181,-0.14648 -0.57374,-0.3418 -0.6958,-0.58594 -0.12209,-0.24414 -0.18312,-0.51269 -0.1831,-0.80566 l 0,-60.4248 -9.96094,0 c -0.6836,6e-5 -1.2085,-0.30512 -1.57471,-0.91553 -0.36621,-0.61029 -0.54932,-1.52582 -0.54932,-2.74658 0,-0.6347 0.0488,-1.18402 0.14649,-1.64795 0.0977,-0.4638 0.23193,-0.85443 0.40283,-1.17188 0.1709,-0.31731 0.39062,-0.54925 0.65918,-0.6958 0.26855,-0.14641 0.57373,-0.21966 0.91553,-0.21973 l 9.96094,0 0,-7.54394 c -2e-5,-4.63859 0.41502,-8.59367 1.24511,-11.86524 0.83006,-3.27139 2.08739,-5.93252 3.77197,-7.98339 1.68455,-2.05069 3.79637,-3.53994 6.33545,-4.46778 2.53904,-0.92763 5.49314,-1.3915 8.86231,-1.3916 1.66012,10e-5 3.27144,0.15879 4.83398,0.47608 1.56246,0.31748 2.74654,0.65928 3.55225,1.02539 0.80562,0.36631 1.34273,0.68369 1.61133,0.95214 0.26851,0.26866 0.48823,0.59825 0.65918,0.98877 0.17085,0.39073 0.29292,0.84239 0.36621,1.35498 0.0732,0.5128 0.10981,1.08653 0.10986,1.7212 z"
           id="path3897"
           style="font-size:150px" />
        <path
           d="m 645.65082,-344.11911 c -10e-6,-1.75778 0.46386,-2.96627 1.3916,-3.62549 0.92772,-0.65914 1.83104,-0.98873 2.70996,-0.98877 l 45.19043,0 c -6e-5,-3.90621 -0.4151,-7.48286 -1.24512,-10.72998 -0.83013,-3.24702 -2.14849,-6.03022 -3.95508,-8.34961 -1.80669,-2.31928 -4.15043,-4.12591 -7.03125,-5.41992 -2.8809,-1.29388 -6.3721,-1.94085 -10.47363,-1.94092 -3.22269,7e-5 -6.07913,0.29303 -8.56933,0.87891 -2.49026,0.586 -4.6387,1.24518 -6.44532,1.97754 -1.80665,0.73248 -3.25929,1.39166 -4.35791,1.97754 -1.09864,0.58599 -1.8921,0.87896 -2.38037,0.8789 -0.63478,6e-5 -1.09864,-0.30512 -1.3916,-0.91552 -0.29298,-0.6103 -0.43946,-1.64789 -0.43945,-3.1128 -10e-6,-1.51361 0.3662,-2.63665 1.09863,-3.36914 0.29296,-0.2929 1.062,-0.75677 2.30713,-1.3916 1.2451,-0.6347 2.89305,-1.28167 4.94385,-1.94092 2.05076,-0.65911 4.44333,-1.23284 7.17773,-1.72119 2.73435,-0.48821 5.76169,-0.73235 9.08203,-0.73242 9.96089,7e-5 17.6269,3.03962 22.99805,9.11865 5.37103,6.07916 8.05657,14.95366 8.05664,26.62354 -7e-5,5.61526 -0.73249,10.64455 -2.19727,15.08789 -1.4649,4.44337 -3.52789,8.21534 -6.18896,11.31592 -2.66119,3.10059 -5.88384,5.46875 -9.66797,7.10449 -3.78422,1.63574 -7.99565,2.45361 -12.63428,2.45361 -4.9805,0 -9.22854,-0.8667 -12.74414,-2.6001 -3.51564,-1.73339 -6.40871,-4.04052 -8.6792,-6.92138 -2.27052,-2.88085 -3.93067,-6.22557 -4.98047,-10.03418 -1.04981,-3.80857 -1.57471,-7.76365 -1.5747,-11.86524 z m 9.00879,2.56348 c -0.1465,7.27541 1.46482,12.93947 4.83398,16.99218 3.36912,4.05275 8.27634,6.07911 14.72168,6.07911 3.32027,0 6.24996,-0.62256 8.78906,-1.86768 2.53902,-1.24511 4.68745,-2.91747 6.44532,-5.01709 1.75776,-2.09959 3.08832,-4.55321 3.9917,-7.36084 0.90326,-2.80759 1.40375,-5.74949 1.50146,-8.82568 z"
           id="path3899"
           style="font-size:150px" />
        <path
           d="m 767.96527,-393.99704 c -2e-5,0.53719 -0.25637,0.98885 -0.76904,1.35498 -0.51272,0.36629 -1.45266,0.5494 -2.81983,0.54932 -1.3672,8e-5 -2.33156,-0.18303 -2.89306,-0.54932 -0.56154,-0.36613 -0.8423,-0.86662 -0.84229,-1.50146 l 0,-26.22071 c -10e-6,-0.58583 0.28075,-1.07411 0.84229,-1.46484 0.5615,-0.39052 1.52586,-0.58583 2.89306,-0.58594 1.36717,1.1e-4 2.30711,0.19542 2.81983,0.58594 0.51267,0.39073 0.76902,0.87901 0.76904,1.46484 z"
           id="path3901"
           style="font-size:150px" />
        <path
           d="m 852.63324,-347.78122 c -7e-5,5.66409 -0.62263,10.76663 -1.86768,15.30762 -1.24518,4.54103 -3.07623,8.39845 -5.49316,11.57226 -2.41705,3.17384 -5.40777,5.62745 -8.97217,7.36084 -3.5645,1.7334 -7.64165,2.6001 -12.23144,2.6001 -1.95317,0 -3.78422,-0.20752 -5.49317,-0.62256 -1.70902,-0.41504 -3.38138,-1.06201 -5.01709,-1.94092 -1.63577,-0.8789 -3.27151,-1.97753 -4.90722,-3.29589 -1.63577,-1.31836 -3.35696,-2.90527 -5.16358,-4.76075 l 0,34.20411 c -2e-5,0.29294 -0.0733,0.56149 -0.21972,0.80566 -0.14651,0.24411 -0.37844,0.45163 -0.69581,0.62256 -0.3174,0.17087 -0.75685,0.29294 -1.31835,0.36621 -0.56155,0.0732 -1.28176,0.10984 -2.16065,0.10986 -0.83009,-2e-5 -1.52589,-0.0367 -2.0874,-0.10986 -0.56154,-0.0733 -1.0132,-0.19534 -1.35498,-0.36621 -0.34181,-0.17093 -0.57375,-0.37845 -0.6958,-0.62256 -0.12209,-0.24417 -0.18312,-0.51272 -0.18311,-0.80566 l 0,-92.57813 c -1e-5,-0.34173 0.061,-0.6347 0.18311,-0.87891 0.12205,-0.24407 0.34178,-0.43938 0.65918,-0.58593 0.31737,-0.14642 0.7324,-0.25628 1.24511,-0.32959 0.51268,-0.0732 1.13524,-0.1098 1.86768,-0.10987 0.7324,7e-5 1.34276,0.0367 1.83105,0.10987 0.48827,0.0733 0.90331,0.18317 1.24512,0.32959 0.34178,0.14655 0.58592,0.34186 0.73242,0.58593 0.14647,0.24421 0.21971,0.53718 0.21973,0.87891 l 0,9.59473 c 2.05076,-2.09955 4.00388,-3.9184 5.85938,-5.45655 1.85544,-1.53802 3.7109,-2.81975 5.5664,-3.84521 1.85544,-1.02532 3.75973,-1.78216 5.71289,-2.27051 1.95309,-0.48821 4.02828,-0.73235 6.22559,-0.73242 4.78511,7e-5 8.86225,0.9156 12.23144,2.74658 3.36908,1.83112 6.11566,4.33356 8.23975,7.50733 2.12396,3.17388 3.66204,6.87261 4.61426,11.09619 0.95208,4.22367 1.42815,8.72806 1.42822,13.51318 z m -9.15527,1.3916 c -6e-5,-3.7109 -0.29303,-7.28755 -0.87891,-10.72998 -0.586,-3.44233 -1.57477,-6.50629 -2.96631,-9.19189 -1.39166,-2.68549 -3.24712,-4.83393 -5.5664,-6.44532 -2.31939,-1.61126 -5.23687,-2.41692 -8.75245,-2.41699 -1.75785,7e-5 -3.47904,0.24421 -5.16357,0.73242 -1.68461,0.48835 -3.4058,1.29401 -5.16357,2.417 -1.75785,1.1231 -3.5889,2.57574 -5.49317,4.35791 -1.90432,1.78228 -3.90627,3.99175 -6.00586,6.62841 l 0,28.85743 c 3.66209,4.44337 7.1655,7.84913 10.51026,10.21728 3.34469,2.36817 6.8481,3.55225 10.51025,3.55225 3.3691,0 6.26216,-0.81787 8.6792,-2.45362 2.41694,-1.63573 4.38227,-3.78416 5.896,-6.44531 1.51361,-2.66111 2.62445,-5.66404 3.33251,-9.00879 0.70795,-3.3447 1.06196,-6.70163 1.06202,-10.0708 z"
           id="path3903"
           style="font-size:150px" />
        <path
           d="m 886.69086,-319.50974 12.08496,0 c 1.31832,1e-5 1.9775,1.22071 1.97754,3.66211 -4e-5,2.44141 -0.65922,3.66211 -1.97754,3.66211 l -32.8125,0 c -1.31837,0 -1.97754,-1.2207 -1.97754,-3.66211 0,-2.4414 0.65917,-3.6621 1.97754,-3.66211 l 12.08496,0 0,-54.63867 -12.08496,0 c -1.31837,6e-5 -1.97754,-1.22064 -1.97754,-3.66211 0,-2.44133 0.65917,-3.66204 1.97754,-3.66211 l 32.8125,0 c 1.31832,7e-5 1.9775,1.22078 1.97754,3.66211 -4e-5,2.44147 -0.65922,3.66217 -1.97754,3.66211 l -12.08496,0 z"
           id="path3905"
           style="font-size:150px" />
        <path
           d="m 967.18402,-313.79684 c -6e-5,0.34179 -0.0733,0.63476 -0.21973,0.8789 -0.14654,0.24414 -0.39068,0.45166 -0.73242,0.62256 -0.34186,0.1709 -0.80572,0.30518 -1.3916,0.40283 -0.586,0.0977 -1.34283,0.14649 -2.27051,0.14649 -0.97662,0 -1.78228,-0.0366 -2.41699,-0.10987 -0.63482,-0.0732 -1.18414,-0.1831 -1.64795,-0.32959 -0.46392,-0.14648 -0.85454,-0.34179 -1.17187,-0.58593 -0.31744,-0.24414 -0.62261,-0.53711 -0.91553,-0.87891 l -31.05469,-37.64648 0,37.64648 c -2e-5,0.29297 -0.0733,0.56152 -0.21972,0.80566 -0.14651,0.24414 -0.37844,0.43946 -0.69581,0.58594 -0.3174,0.14649 -0.75685,0.26856 -1.31835,0.36621 -0.56155,0.0977 -1.28176,0.14649 -2.16065,0.14649 -0.83009,0 -1.52589,-0.0488 -2.0874,-0.14649 -0.56154,-0.0976 -1.0132,-0.21972 -1.35498,-0.36621 -0.34181,-0.14648 -0.57375,-0.3418 -0.6958,-0.58594 -0.12209,-0.24414 -0.18312,-0.51269 -0.18311,-0.80566 l 0,-98.73047 c -1e-5,-0.29287 0.061,-0.56142 0.18311,-0.80566 0.12205,-0.24404 0.35399,-0.45156 0.6958,-0.62256 0.34178,-0.1708 0.79344,-0.29287 1.35498,-0.36621 0.56151,-0.0731 1.25731,-0.10976 2.0874,-0.10987 0.87889,1.1e-4 1.5991,0.0367 2.16065,0.10987 0.5615,0.0733 1.00095,0.19541 1.31835,0.36621 0.31737,0.171 0.5493,0.37852 0.69581,0.62256 0.14646,0.24424 0.2197,0.51279 0.21972,0.80566 l 0,60.9375 27.90528,-28.19824 c 0.39057,-0.43939 0.7934,-0.79339 1.20849,-1.06201 0.41499,-0.26849 0.86665,-0.48822 1.35498,-0.65918 0.48823,-0.17083 1.04975,-0.2929 1.68457,-0.36621 0.63471,-0.0732 1.36714,-0.1098 2.19727,-0.10987 0.83002,7e-5 1.55023,0.0245 2.16064,0.0733 0.6103,0.0489 1.11078,0.14655 1.50147,0.29296 0.39056,0.14656 0.68353,0.32966 0.8789,0.54932 0.19526,0.2198 0.29291,0.50056 0.29297,0.84229 -6e-5,0.48834 -0.14654,0.96442 -0.43945,1.42822 -0.29303,0.46393 -0.80572,1.06208 -1.53809,1.79443 l -26.51367,25.04883 29.44336,35.15625 c 0.6347,0.73243 1.07416,1.29395 1.31836,1.68457 0.24408,0.39063 0.36615,0.78125 0.36621,1.17188 z"
           id="path3907"
           style="font-size:150px" />
        <path
           d="m 1021.8227,-331.30173 c -1e-4,3.17385 -0.586,6.01808 -1.7578,8.53272 -1.1719,2.51465 -2.8443,4.65088 -5.0171,6.40869 -2.1729,1.75781 -4.773,3.10059 -7.8003,4.02832 -3.0274,0.92773 -6.3721,1.3916 -10.03418,1.3916 -2.29495,0 -4.4678,-0.18311 -6.51856,-0.54932 -2.0508,-0.36621 -3.90626,-0.83007 -5.5664,-1.3916 -1.66017,-0.56152 -3.06398,-1.15966 -4.21143,-1.79443 -1.14747,-0.63476 -1.98975,-1.19629 -2.52685,-1.68457 -0.53712,-0.48828 -0.92775,-1.09863 -1.17188,-1.83106 -0.24415,-0.73241 -0.36622,-1.70897 -0.36621,-2.92968 -10e-6,-0.63476 0.0488,-1.19628 0.14648,-1.68457 0.0977,-0.48827 0.21972,-0.90331 0.36622,-1.24512 0.14647,-0.34179 0.34178,-0.59813 0.58593,-0.76904 0.24414,-0.17089 0.51269,-0.25634 0.80567,-0.25635 0.5371,1e-5 1.31835,0.34181 2.34375,1.02539 1.02538,0.6836 2.30711,1.42823 3.84521,2.23389 1.53807,0.80567 3.36912,1.5503 5.49317,2.23388 2.124,0.6836 4.57761,1.0254 7.36084,1.02539 2.24604,1e-5 4.29684,-0.24413 6.15234,-0.73242 1.8554,-0.48827 3.4668,-1.22069 4.834,-2.19726 1.3671,-0.97656 2.4291,-2.23388 3.186,-3.77198 0.7568,-1.53807 1.1352,-3.3325 1.1353,-5.3833 -10e-5,-2.05076 -0.4884,-3.78416 -1.4649,-5.20019 -0.9766,-1.41599 -2.2583,-2.6489 -3.8452,-3.69873 -1.5869,-1.04978 -3.3936,-1.97751 -5.4199,-2.78321 -2.0264,-0.80563 -4.1016,-1.63571 -6.22559,-2.49023 -2.12405,-0.85446 -4.19924,-1.7944 -6.22559,-2.81983 -2.02638,-1.02535 -3.83302,-2.27047 -5.41992,-3.73535 -1.58693,-1.4648 -2.86867,-3.22261 -3.84522,-5.27343 -0.97657,-2.05074 -1.46485,-4.51656 -1.46484,-7.39747 -10e-6,-2.29486 0.43944,-4.55316 1.31836,-6.7749 0.87889,-2.22162 2.23387,-4.21136 4.06494,-5.96924 1.83104,-1.75774 4.17479,-3.17376 7.03125,-4.24804 2.85642,-1.07415 6.23777,-1.61126 10.14401,-1.61133 1.6602,7e-5 3.3081,0.13435 4.9439,0.40283 1.6357,0.26863 3.1249,0.62263 4.4678,1.06201 1.3427,0.43952 2.5024,0.9156 3.479,1.42823 0.9765,0.51276 1.7211,0.96442 2.2338,1.35498 0.5127,0.39069 0.8545,0.72028 1.0254,0.98877 0.1709,0.26862 0.293,0.54938 0.3662,0.84228 0.073,0.29303 0.1343,0.64704 0.1832,1.06201 0.049,0.4151 0.073,0.91559 0.073,1.50147 -10e-5,0.586 -0.037,1.1109 -0.1099,1.5747 -0.073,0.46393 -0.1831,0.86676 -0.3296,1.2085 -0.1465,0.34186 -0.3296,0.5982 -0.5493,0.76904 -0.2197,0.17096 -0.4761,0.25641 -0.769,0.25635 -0.3907,6e-5 -0.9766,-0.2685 -1.7578,-0.80566 -0.7813,-0.53705 -1.8067,-1.12299 -3.0762,-1.75782 -1.2696,-0.6347 -2.7832,-1.22064 -4.541,-1.75781 -1.7579,-0.53704 -3.7842,-0.8056 -6.0791,-0.80566 -2.29497,6e-5 -4.30913,0.26862 -6.0425,0.80566 -1.73342,0.53717 -3.16164,1.29401 -4.28467,2.27051 -1.12306,0.97662 -1.96535,2.12408 -2.52685,3.44238 -0.56154,1.31842 -0.84231,2.75885 -0.84229,4.32129 -2e-5,2.14849 0.48827,3.95513 1.46485,5.41992 0.97654,1.46489 2.27048,2.73442 3.88183,3.8086 1.61131,1.07426 3.44236,2.02641 5.49317,2.85644 2.05076,0.83012 4.13816,1.6602 6.26216,2.49024 2.124,0.83011 4.2114,1.74564 6.2622,2.74658 2.0508,1.00101 3.8818,2.2095 5.4932,3.62549 1.6113,1.41604 2.9052,3.11282 3.8818,5.09033 0.9766,1.97756 1.4648,4.35793 1.4649,7.14111 z"
           id="path3909"
           style="font-size:150px" />
        <path
           d="m 1036.4711,-344.11911 c 0,-1.75778 0.4639,-2.96627 1.3916,-3.62549 0.9278,-0.65914 1.8311,-0.98873 2.71,-0.98877 l 45.1904,0 c 0,-3.90621 -0.4151,-7.48286 -1.2451,-10.72998 -0.8301,-3.24702 -2.1485,-6.03022 -3.9551,-8.34961 -1.8067,-2.31928 -4.1504,-4.12591 -7.0312,-5.41992 -2.8809,-1.29388 -6.3721,-1.94085 -10.4737,-1.94092 -3.2226,7e-5 -6.0791,0.29303 -8.5693,0.87891 -2.4902,0.586 -4.6387,1.24518 -6.4453,1.97754 -1.8067,0.73248 -3.2593,1.39166 -4.3579,1.97754 -1.0987,0.58599 -1.8921,0.87896 -2.3804,0.8789 -0.6348,6e-5 -1.0986,-0.30512 -1.3916,-0.91552 -0.293,-0.6103 -0.4395,-1.64789 -0.4394,-3.1128 -10e-5,-1.51361 0.3662,-2.63665 1.0986,-3.36914 0.2929,-0.2929 1.062,-0.75677 2.3071,-1.3916 1.2451,-0.6347 2.8931,-1.28167 4.9439,-1.94092 2.0507,-0.65911 4.4433,-1.23284 7.1777,-1.72119 2.7343,-0.48821 5.7617,-0.73235 9.082,-0.73242 9.9609,7e-5 17.6269,3.03962 22.9981,9.11865 5.371,6.07916 8.0566,14.95366 8.0566,26.62354 0,5.61526 -0.7325,10.64455 -2.1972,15.08789 -1.4649,4.44337 -3.5279,8.21534 -6.189,11.31592 -2.6612,3.10059 -5.8838,5.46875 -9.668,7.10449 -3.7842,1.63574 -7.9956,2.45361 -12.6343,2.45361 -4.9805,0 -9.2285,-0.8667 -12.7441,-2.6001 -3.5156,-1.73339 -6.4087,-4.04052 -8.6792,-6.92138 -2.2705,-2.88085 -3.9307,-6.22557 -4.9805,-10.03418 -1.0498,-3.80857 -1.5747,-7.76365 -1.5747,-11.86524 z m 9.0088,2.56348 c -0.1465,7.27541 1.4648,12.93947 4.834,16.99218 3.3691,4.05275 8.2763,6.07911 14.7217,6.07911 3.3203,0 6.2499,-0.62256 8.789,-1.86768 2.5391,-1.24511 4.6875,-2.91747 6.4454,-5.01709 1.7577,-2.09959 3.0883,-4.55321 3.9917,-7.36084 0.9032,-2.80759 1.4037,-5.74949 1.5014,-8.82568 z"
           id="path3911"
           style="font-size:150px" />
        <path
           d="m 1123.7026,-313.65036 c 0,0.29297 -0.073,0.56152 -0.2198,0.80566 -0.1465,0.24414 -0.3784,0.43946 -0.6958,0.58594 -0.3174,0.14649 -0.7568,0.26856 -1.3183,0.36621 -0.5616,0.0977 -1.2818,0.14649 -2.1607,0.14649 -0.83,0 -1.5258,-0.0488 -2.0874,-0.14649 -0.5615,-0.0976 -1.0132,-0.21972 -1.3549,-0.36621 -0.3418,-0.14648 -0.5738,-0.3418 -0.6958,-0.58594 -0.1221,-0.24414 -0.1832,-0.51269 -0.1831,-0.80566 l 0,-98.73047 c -10e-5,-0.29287 0.061,-0.56142 0.1831,-0.80566 0.122,-0.24404 0.354,-0.45156 0.6958,-0.62256 0.3417,-0.1708 0.7934,-0.29287 1.3549,-0.36621 0.5616,-0.0731 1.2574,-0.10976 2.0874,-0.10987 0.8789,1.1e-4 1.5991,0.0367 2.1607,0.10987 0.5615,0.0733 1.0009,0.19541 1.3183,0.36621 0.3174,0.171 0.5493,0.37852 0.6958,0.62256 0.1465,0.24424 0.2198,0.51279 0.2198,0.80566 z"
           id="path3913"
           style="font-size:150px" />
        <path
           d="m 1178.7807,-295.19333 c -0.1953,0.58592 -0.4273,1.04979 -0.6958,1.3916 -0.2686,0.34178 -0.5859,0.61034 -0.9521,0.80567 -0.3663,0.19529 -0.8057,0.32957 -1.3184,0.40283 -0.5127,0.0732 -1.1353,0.10984 -1.8677,0.10986 -0.7324,-2e-5 -1.3794,-0.0733 -1.9409,-0.21972 -0.5615,-0.14651 -1.0132,-0.35403 -1.355,-0.62256 -0.3418,-0.26858 -0.5493,-0.61037 -0.6225,-1.02539 -0.073,-0.41506 0.012,-0.89113 0.2563,-1.42823 l 44.6777,-120.70312 c 0.1953,-0.58583 0.415,-1.0497 0.6592,-1.3916 0.2441,-0.34169 0.5493,-0.61025 0.9155,-0.80567 0.3662,-0.1952 0.8179,-0.32948 1.355,-0.40283 0.5371,-0.0731 1.1719,-0.10976 1.9043,-0.10986 0.7324,10e-5 1.3672,0.0733 1.9043,0.21972 0.5371,0.1466 0.9643,0.35411 1.2818,0.62256 0.3173,0.26866 0.5248,0.61046 0.6225,1.02539 0.098,0.41515 0.049,0.89122 -0.1465,1.42823 z"
           id="path3915"
           style="font-size:150px" />
      </g>
      <g
         id="text3053"
         style="font-size:13.80124283px;font-style:normal;font-weight:normal;text-align:start;text-anchor:start;fill:#000000;font-family:Calibri Light" />
    </g>
  </g>
</svg>
