<?xml version="1.0" encoding="utf-8"?>
<!-- Generator: Adobe Illustrator 19.1.0, SVG Export Plug-In . SVG Version: 6.00 Build 0)  -->
<svg version="1.1"
	 id="svg2" xmlns:rdf="http://www.w3.org/1999/02/22-rdf-syntax-ns#" xmlns:cc="http://creativecommons.org/ns#" xmlns:sodipodi="http://sodipodi.sourceforge.net/DTD/sodipodi-0.dtd" xmlns:svg="http://www.w3.org/2000/svg" xmlns:inkscape="http://www.inkscape.org/namespaces/inkscape" xmlns:dc="http://purl.org/dc/elements/1.1/" sodipodi:docname="halfapx.svg" inkscape:version="0.91 r13725"
	 xmlns="http://www.w3.org/2000/svg" xmlns:xlink="http://www.w3.org/1999/xlink" x="0px" y="0px"
	 viewBox="156 -282.3 1154.2 1157.5" style="enable-background:new 156 -282.3 1154.2 1157.5;" xml:space="preserve">
<style type="text/css">
	.st0{stroke:#000000;stroke-width:39.2076;stroke-linecap:round;}
	.st1{fill:#FFFFFF;stroke:#000000;stroke-width:38.8509;stroke-linecap:round;}
	.st2{stroke:#000000;stroke-width:19.5246;}
	.st3{font-family:'SpecialElite-Regular';}
	.st4{font-size:237.0866px;}
</style>
<sodipodi:namedview  pagecolor="#ffffff" bordercolor="#666666" id="base" inkscape:cy="578.77289" showgrid="false" inkscape:zoom="0.46304864" inkscape:cx="577.11285" borderopacity="1.0" showborder="true" borderlayer="false" fit-margin-left="0" fit-margin-top="0" showguides="false" inkscape:showpageshadow="false" inkscape:window-maximized="1" inkscape:window-y="-8" inkscape:window-x="-8" inkscape:window-height="705" inkscape:window-width="1366" fit-margin-bottom="0" inkscape:current-layer="layer1" fit-margin-right="0" inkscape:pageshadow="2" inkscape:document-units="px" inkscape:pageopacity="0.0">
	<sodipodi:guide  id="guide3757" orientation="450,0" position="87.596828,1170.5976"></sodipodi:guide>
	<sodipodi:guide  id="guide3759" orientation="0,450" position="87.596828,720.59761"></sodipodi:guide>
	<sodipodi:guide  id="guide3761" orientation="-450,0" position="537.59681,720.59761"></sodipodi:guide>
	<sodipodi:guide  id="guide3763" orientation="0,-450" position="537.59681,1170.5976"></sodipodi:guide>
	<sodipodi:guide  id="guide3765" orientation="162.85714,-97.14285" position="384.73969,1209.169"></sodipodi:guide>
	<sodipodi:guide  id="guide3767" orientation="125.71429,82.85714" position="287.59684,1046.3119"></sodipodi:guide>
	<sodipodi:guide  id="guide3769" orientation="80,-82.85714" position="370.45398,920.59763"></sodipodi:guide>
	<sodipodi:guide  id="guide3771" orientation="148.57142,57.14285" position="287.59684,840.59763"></sodipodi:guide>
</sodipodi:namedview>
<g id="layer1" transform="translate(-29.546022,-158.27111)" inkscape:label="Layer 1" inkscape:groupmode="layer">
	<ellipse id="path2997" class="st0" cx="771.3" cy="465" rx="553.5" ry="553.5"/>
	<ellipse id="path2997-1" class="st1" cx="759.1" cy="449.7" rx="558.6" ry="558.6"/>
	<g id="g3884" transform="translate(2.1898424,0)">
		
			<path id="path3773" inkscape:connector-curvature="0" inkscape:transform-center-x="-190.58337" inkscape:transform-center-y="-189.38751" class="st2" d="
			M670.2,382.6l76-83.6l-43.9-109.1l75.8-48.4l-16.7-99l-156-31.6l-69.8,344.4L670.2,382.6z"/>
		<path id="path3775" inkscape:connector-curvature="0" class="st2" d="M992.6,396.5l-214.1,0.7l57.6-97.3l-65-98l64.5-62.7
			l-36.4-93.6L991.5,45L992.6,396.5z"/>
	</g>
	<g id="g3021" transform="translate(-898.18077,1378.0617)">
	</g>
	<text transform="matrix(1 0 0 1 390.0005 607.8928)" class="st3 st4">½ a px.</text>
	<g id="g3049" transform="matrix(0.71064677,0,0,0.71064677,92.322569,1271.1798)">
		<g id="text3051">
			<path id="path3891" inkscape:connector-curvature="0" d="M505.3-692.4c-0.2,0.6-0.4,1-0.7,1.4s-0.6,0.6-1,0.8s-0.8,0.3-1.3,0.4
				s-1.1,0.1-1.9,0.1s-1.4-0.1-1.9-0.2c-0.6-0.1-1-0.4-1.4-0.6s-0.5-0.6-0.6-1c-0.1-0.4,0-0.9,0.3-1.4l44.7-120.7
				c0.2-0.6,0.4-1,0.7-1.4c0.2-0.3,0.5-0.6,0.9-0.8c0.4-0.2,0.8-0.3,1.4-0.4c0.5-0.1,1.2-0.1,1.9-0.1c0.7,0,1.4,0.1,1.9,0.2
				c0.5,0.1,1,0.4,1.3,0.6c0.3,0.3,0.5,0.6,0.6,1c0.1,0.4,0,0.9-0.1,1.4L505.3-692.4z"/>
			<path id="path3893" inkscape:connector-curvature="0" d="M650.9-710.8c0,0.3-0.1,0.6-0.2,0.8c-0.1,0.2-0.4,0.4-0.7,0.6
				c-0.3,0.1-0.8,0.3-1.3,0.4c-0.6,0.1-1.3,0.1-2.1,0.1c-0.9,0-1.6,0-2.2-0.1c-0.6-0.1-1-0.2-1.3-0.4c-0.3-0.1-0.5-0.3-0.7-0.6
				c-0.1-0.2-0.2-0.5-0.2-0.8v-39.3c0-4.1-0.3-7.4-1-10c-0.6-2.6-1.6-4.8-2.9-6.6c-1.3-1.8-2.9-3.2-4.9-4.2c-2-1-4.3-1.5-6.9-1.5
				c-3.4,0-6.7,1.2-10.1,3.6c-3.4,2.4-6.9,5.9-10.6,10.5v47.5c0,0.3-0.1,0.6-0.2,0.8c-0.1,0.2-0.4,0.4-0.7,0.6s-0.8,0.3-1.3,0.4
				s-1.3,0.1-2.2,0.1c-0.8,0-1.5,0-2.1-0.1c-0.6-0.1-1-0.2-1.4-0.4s-0.6-0.3-0.7-0.6s-0.2-0.5-0.2-0.8v-98.7c0-0.3,0.1-0.6,0.2-0.8
				c0.1-0.2,0.4-0.5,0.7-0.6c0.3-0.2,0.8-0.3,1.4-0.4c0.6-0.1,1.3-0.1,2.1-0.1c0.9,0,1.6,0,2.2,0.1c0.6,0.1,1,0.2,1.3,0.4
				c0.3,0.2,0.5,0.4,0.7,0.6c0.1,0.2,0.2,0.5,0.2,0.8v41.4c3.6-4,7.2-6.9,10.8-8.8c3.6-1.9,7.2-2.8,10.8-2.8c4.3,0,8,0.7,11,2.2
				c3,1.5,5.4,3.4,7.2,5.9c1.8,2.5,3.1,5.4,4,8.7c0.8,3.3,1.2,7.3,1.2,12V-710.8z"/>
			<path id="path3895" inkscape:connector-curvature="0" d="M770.8-747.4c0,1.8-0.5,3-1.4,3.6c-0.9,0.7-1.8,1-2.7,1h-45.2
				c0,4.1,0.4,7.8,1.2,11.1c0.8,3.3,2.1,6.2,4,8.5c1.9,2.4,4.3,4.2,7.3,5.5c3,1.3,6.7,1.9,11,1.9c3.1,0,5.8-0.3,8.3-0.8
				c2.4-0.5,4.6-1.1,6.3-1.8c1.8-0.7,3.2-1.3,4.4-1.8c1.1-0.5,2-0.8,2.5-0.8c0.3,0,0.5,0.1,0.8,0.2c0.2,0.1,0.4,0.4,0.5,0.7
				c0.1,0.3,0.3,0.7,0.3,1.2c0.1,0.5,0.1,1.1,0.1,1.8c0,0.3,0,0.7-0.1,1c0,0.3-0.1,0.6-0.2,0.9c-0.1,0.3-0.2,0.5-0.3,0.8
				c-0.1,0.2-0.3,0.5-0.6,0.7c-0.2,0.2-1,0.7-2.3,1.3c-1.3,0.6-2.9,1.2-5,1.8c-2.1,0.6-4.4,1.2-7.1,1.6c-2.7,0.5-5.6,0.7-8.8,0.7
				c-3.2,0-6.1-0.3-8.8-0.8c-2.7-0.6-5.1-1.4-7.2-2.5c-2.1-1.1-4.1-2.4-5.7-4c-1.7-1.6-3.1-3.4-4.4-5.5c-1.6,1.9-3.3,3.6-5.2,5.2
				c-1.9,1.6-3.8,2.9-5.9,4.1c-2.1,1.1-4.3,2-6.6,2.6c-2.3,0.6-4.8,0.9-7.4,0.9c-3.5,0-6.6-0.5-9.3-1.4c-2.8-0.9-5.1-2.2-7-3.9
				c-1.9-1.7-3.4-3.7-4.4-6.1s-1.5-5.1-1.5-8.1c0-3.7,0.8-6.8,2.3-9.6s3.7-5,6.4-6.8c2.8-1.8,6.1-3.2,10-4.1c3.9-0.9,8.3-1.4,13-1.4
				h10.5v-5.7c0-2.8-0.3-5.3-0.9-7.5c-0.6-2.2-1.5-4-2.9-5.5c-1.3-1.5-3-2.6-5.1-3.3c-2.1-0.7-4.7-1.1-7.7-1.1
				c-2.9,0-5.6,0.4-7.9,1.1c-2.3,0.7-4.4,1.5-6.2,2.4c-1.8,0.9-3.3,1.7-4.4,2.4c-1.2,0.7-2,1.1-2.5,1.1c-0.3,0-0.5,0-0.8-0.1
				c-0.2-0.1-0.4-0.3-0.5-0.5c-0.1-0.3-0.3-0.6-0.3-1c-0.1-0.4-0.1-0.9-0.1-1.5c0-1,0.1-1.8,0.2-2.5c0.1-0.6,0.5-1.2,1.1-1.8
				c0.6-0.6,1.7-1.3,3.3-2.2c1.6-0.8,3.4-1.6,5.4-2.3c2-0.7,4.2-1.3,6.6-1.7c2.3-0.4,4.7-0.7,7-0.7c3.3,0,6.1,0.3,8.6,0.9
				c2.4,0.6,4.5,1.4,6.3,2.5c1.8,1.1,3.2,2.4,4.4,3.9c1.1,1.5,2.1,3.2,2.8,5c2.3-4,5.6-7,9.7-9.1c4.2-2.1,8.8-3.2,14-3.2
				c5,0,9.2,0.8,12.7,2.5c3.5,1.7,6.4,3.9,8.7,6.7c2.3,2.8,3.9,6.1,5,9.8c1,3.7,1.6,7.6,1.6,11.7L770.8-747.4z M761.8-750
				c0-3.5-0.3-6.7-1.2-9.4c-0.8-2.8-2.1-5.1-3.7-7c-1.7-1.9-3.7-3.4-6.2-4.4c-2.5-1-5.3-1.5-8.5-1.5c-3.3,0-6.3,0.6-8.8,1.9
				c-2.5,1.2-4.7,2.9-6.4,4.9c-1.7,2.1-3.1,4.4-4,7.1c-0.9,2.7-1.5,5.5-1.6,8.5H761.8z M714.4-728.5c-0.6-1.8-1.1-4-1.4-6.5
				c-0.3-2.5-0.4-4.9-0.4-7.1h-11.9c-3.5,0-6.6,0.3-9.2,1c-2.6,0.6-4.8,1.6-6.6,2.8c-1.8,1.2-3.1,2.7-3.9,4.4
				c-0.9,1.7-1.3,3.7-1.3,5.9c0,3.8,1.2,6.8,3.6,9.1c2.4,2.3,5.8,3.4,10.2,3.4c3.5,0,6.9-1,10.3-3
				C707.2-720.7,710.7-724,714.4-728.5z"/>
			<path id="path3897" inkscape:connector-curvature="0" d="M825.1-805.4c0,0.7,0,1.2-0.1,1.6c-0.1,0.4-0.2,0.7-0.3,1
				c-0.1,0.2-0.3,0.4-0.4,0.5c-0.2,0.1-0.4,0.1-0.6,0.1c-0.4,0-0.9-0.1-1.4-0.4c-0.5-0.2-1.2-0.5-2-0.8c-0.8-0.3-1.8-0.6-2.9-0.8
				c-1.1-0.2-2.4-0.4-3.8-0.4c-2.1,0-3.8,0.3-5.2,1c-1.4,0.7-2.6,1.7-3.4,3.1c-0.9,1.4-1.5,3.3-1.9,5.6c-0.4,2.3-0.5,5-0.5,8.2v7.8
				h16.3c0.3,0,0.6,0.1,0.9,0.2c0.2,0.1,0.5,0.4,0.7,0.7c0.2,0.3,0.3,0.7,0.4,1.2c0.1,0.5,0.1,1,0.1,1.6c0,1.2-0.2,2.1-0.6,2.7
				c-0.4,0.6-0.9,0.9-1.5,0.9h-16.3v60.4c0,0.3-0.1,0.6-0.2,0.8c-0.1,0.2-0.4,0.4-0.7,0.6s-0.8,0.3-1.4,0.4s-1.3,0.1-2.1,0.1
				s-1.5,0-2.1-0.1c-0.6-0.1-1-0.2-1.4-0.4s-0.6-0.3-0.7-0.6s-0.2-0.5-0.2-0.8v-60.4h-10c-0.7,0-1.2-0.3-1.6-0.9
				c-0.4-0.6-0.5-1.5-0.5-2.7c0-0.6,0-1.2,0.1-1.6c0.1-0.5,0.2-0.9,0.4-1.2c0.2-0.3,0.4-0.5,0.7-0.7c0.3-0.1,0.6-0.2,0.9-0.2h10
				v-7.5c0-4.6,0.4-8.6,1.2-11.9c0.8-3.3,2.1-5.9,3.8-8c1.7-2.1,3.8-3.5,6.3-4.5c2.5-0.9,5.5-1.4,8.9-1.4c1.7,0,3.3,0.2,4.8,0.5
				c1.6,0.3,2.7,0.7,3.6,1c0.8,0.4,1.3,0.7,1.6,1c0.3,0.3,0.5,0.6,0.7,1c0.2,0.4,0.3,0.8,0.4,1.4C825.1-806.6,825.1-806,825.1-805.4
				z"/>
			<path id="path3899" inkscape:connector-curvature="0" d="M865.2-741.3c0-1.8,0.5-3,1.4-3.6s1.8-1,2.7-1h45.2
				c0-3.9-0.4-7.5-1.2-10.7c-0.8-3.2-2.1-6-4-8.3c-1.8-2.3-4.2-4.1-7-5.4c-2.9-1.3-6.4-1.9-10.5-1.9c-3.2,0-6.1,0.3-8.6,0.9
				c-2.5,0.6-4.6,1.2-6.4,2c-1.8,0.7-3.3,1.4-4.4,2c-1.1,0.6-1.9,0.9-2.4,0.9c-0.6,0-1.1-0.3-1.4-0.9c-0.3-0.6-0.4-1.6-0.4-3.1
				c0-1.5,0.4-2.6,1.1-3.4c0.3-0.3,1.1-0.8,2.3-1.4c1.2-0.6,2.9-1.3,4.9-1.9c2.1-0.7,4.4-1.2,7.2-1.7c2.7-0.5,5.8-0.7,9.1-0.7
				c10,0,17.6,3,23,9.1c5.4,6.1,8.1,15,8.1,26.6c0,5.6-0.7,10.6-2.2,15.1c-1.5,4.4-3.5,8.2-6.2,11.3c-2.7,3.1-5.9,5.5-9.7,7.1
				c-3.8,1.6-8,2.5-12.6,2.5c-5,0-9.2-0.9-12.7-2.6c-3.5-1.7-6.4-4-8.7-6.9s-3.9-6.2-5-10s-1.6-7.8-1.6-11.9V-741.3z M874.2-738.8
				c-0.1,7.3,1.5,12.9,4.8,17c3.4,4.1,8.3,6.1,14.7,6.1c3.3,0,6.2-0.6,8.8-1.9c2.5-1.2,4.7-2.9,6.4-5c1.8-2.1,3.1-4.6,4-7.4
				c0.9-2.8,1.4-5.7,1.5-8.8H874.2z"/>
			<path id="path3901" inkscape:connector-curvature="0" d="M987.5-791.2c0,0.5-0.3,1-0.8,1.4c-0.5,0.4-1.5,0.5-2.8,0.5
				c-1.4,0-2.3-0.2-2.9-0.5c-0.6-0.4-0.8-0.9-0.8-1.5v-26.2c0-0.6,0.3-1.1,0.8-1.5c0.6-0.4,1.5-0.6,2.9-0.6c1.4,0,2.3,0.2,2.8,0.6
				c0.5,0.4,0.8,0.9,0.8,1.5V-791.2z"/>
			<path id="path3903" inkscape:connector-curvature="0" d="M1072.2-745c0,5.7-0.6,10.8-1.9,15.3c-1.2,4.5-3.1,8.4-5.5,11.6
				c-2.4,3.2-5.4,5.6-9,7.4c-3.6,1.7-7.6,2.6-12.2,2.6c-2,0-3.8-0.2-5.5-0.6c-1.7-0.4-3.4-1.1-5-1.9c-1.6-0.9-3.3-2-4.9-3.3
				s-3.4-2.9-5.2-4.8v34.2c0,0.3-0.1,0.6-0.2,0.8c-0.1,0.2-0.4,0.5-0.7,0.6s-0.8,0.3-1.3,0.4s-1.3,0.1-2.2,0.1c-0.8,0-1.5,0-2.1-0.1
				c-0.6-0.1-1-0.2-1.4-0.4s-0.6-0.4-0.7-0.6s-0.2-0.5-0.2-0.8v-92.6c0-0.3,0.1-0.6,0.2-0.9c0.1-0.2,0.3-0.4,0.7-0.6
				c0.3-0.1,0.7-0.3,1.2-0.3c0.5-0.1,1.1-0.1,1.9-0.1c0.7,0,1.3,0,1.8,0.1c0.5,0.1,0.9,0.2,1.2,0.3c0.3,0.1,0.6,0.3,0.7,0.6
				c0.1,0.2,0.2,0.5,0.2,0.9v9.6c2.1-2.1,4-3.9,5.9-5.5c1.9-1.5,3.7-2.8,5.6-3.8c1.9-1,3.8-1.8,5.7-2.3c2-0.5,4-0.7,6.2-0.7
				c4.8,0,8.9,0.9,12.2,2.7c3.4,1.8,6.1,4.3,8.2,7.5c2.1,3.2,3.7,6.9,4.6,11.1C1071.7-754.3,1072.2-749.8,1072.2-745z M1063-743.6
				c0-3.7-0.3-7.3-0.9-10.7c-0.6-3.4-1.6-6.5-3-9.2c-1.4-2.7-3.2-4.8-5.6-6.4c-2.3-1.6-5.2-2.4-8.8-2.4c-1.8,0-3.5,0.2-5.2,0.7
				c-1.7,0.5-3.4,1.3-5.2,2.4c-1.8,1.1-3.6,2.6-5.5,4.4c-1.9,1.8-3.9,4-6,6.6v28.9c3.7,4.4,7.2,7.8,10.5,10.2
				c3.3,2.4,6.8,3.6,10.5,3.6c3.4,0,6.3-0.8,8.7-2.5c2.4-1.6,4.4-3.8,5.9-6.4c1.5-2.7,2.6-5.7,3.3-9
				C1062.6-736.9,1063-740.2,1063-743.6z"/>
			<path id="path3905" inkscape:connector-curvature="0" d="M1106.2-716.7h12.1c1.3,0,2,1.2,2,3.7c0,2.4-0.7,3.7-2,3.7h-32.8
				c-1.3,0-2-1.2-2-3.7s0.7-3.7,2-3.7h12.1v-54.6h-12.1c-1.3,0-2-1.2-2-3.7c0-2.4,0.7-3.7,2-3.7h32.8c1.3,0,2,1.2,2,3.7
				c0,2.4-0.7,3.7-2,3.7h-12.1V-716.7z"/>
			<path id="path3907" inkscape:connector-curvature="0" d="M1186.7-711c0,0.3-0.1,0.6-0.2,0.9s-0.4,0.5-0.7,0.6s-0.8,0.3-1.4,0.4
				s-1.3,0.1-2.3,0.1c-1,0-1.8,0-2.4-0.1s-1.2-0.2-1.6-0.3s-0.9-0.3-1.2-0.6s-0.6-0.5-0.9-0.9l-31.1-37.6v37.6
				c0,0.3-0.1,0.6-0.2,0.8s-0.4,0.4-0.7,0.6s-0.8,0.3-1.3,0.4s-1.3,0.1-2.2,0.1c-0.8,0-1.5,0-2.1-0.1c-0.6-0.1-1-0.2-1.4-0.4
				c-0.3-0.1-0.6-0.3-0.7-0.6s-0.2-0.5-0.2-0.8v-98.7c0-0.3,0.1-0.6,0.2-0.8c0.1-0.2,0.4-0.5,0.7-0.6c0.3-0.2,0.8-0.3,1.4-0.4
				c0.6-0.1,1.3-0.1,2.1-0.1c0.9,0,1.6,0,2.2,0.1c0.6,0.1,1,0.2,1.3,0.4c0.3,0.2,0.5,0.4,0.7,0.6c0.1,0.2,0.2,0.5,0.2,0.8v60.9
				l27.9-28.2c0.4-0.4,0.8-0.8,1.2-1.1c0.4-0.3,0.9-0.5,1.4-0.7c0.5-0.2,1-0.3,1.7-0.4c0.6-0.1,1.4-0.1,2.2-0.1c0.8,0,1.6,0,2.2,0.1
				c0.6,0,1.1,0.1,1.5,0.3c0.4,0.1,0.7,0.3,0.9,0.5c0.2,0.2,0.3,0.5,0.3,0.8c0,0.5-0.1,1-0.4,1.4c-0.3,0.5-0.8,1.1-1.5,1.8l-26.5,25
				l29.4,35.2c0.6,0.7,1.1,1.3,1.3,1.7S1186.7-711.4,1186.7-711L1186.7-711z"/>
			<path id="path3909" inkscape:connector-curvature="0" d="M1241.3-728.5c0,3.2-0.6,6-1.8,8.5s-2.8,4.7-5,6.4s-4.8,3.1-7.8,4
				s-6.4,1.4-10,1.4c-2.3,0-4.5-0.2-6.5-0.5s-3.9-0.8-5.6-1.4s-3.1-1.2-4.2-1.8s-2-1.2-2.5-1.7s-0.9-1.1-1.2-1.8s-0.4-1.7-0.4-2.9
				c0-0.6,0-1.2,0.1-1.7c0.1-0.5,0.2-0.9,0.4-1.2s0.3-0.6,0.6-0.8s0.5-0.3,0.8-0.3c0.5,0,1.3,0.3,2.3,1s2.3,1.4,3.8,2.2
				s3.4,1.6,5.5,2.2s4.6,1,7.4,1c2.2,0,4.3-0.2,6.2-0.7s3.5-1.2,4.8-2.2s2.4-2.2,3.2-3.8c0.8-1.5,1.1-3.3,1.1-5.4
				c0-2.1-0.5-3.8-1.5-5.2c-1-1.4-2.3-2.6-3.8-3.7s-3.4-2-5.4-2.8c-2-0.8-4.1-1.6-6.2-2.5c-2.1-0.9-4.2-1.8-6.2-2.8
				s-3.8-2.3-5.4-3.7s-2.9-3.2-3.8-5.3c-1-2.1-1.5-4.5-1.5-7.4c0-2.3,0.4-4.6,1.3-6.8c0.9-2.2,2.2-4.2,4.1-6c1.8-1.8,4.2-3.2,7-4.2
				c2.9-1.1,6.2-1.6,10.1-1.6c1.7,0,3.3,0.1,4.9,0.4c1.6,0.3,3.1,0.6,4.5,1.1c1.3,0.4,2.5,0.9,3.5,1.4c1,0.5,1.7,1,2.2,1.4
				c0.5,0.4,0.9,0.7,1,1c0.2,0.3,0.3,0.5,0.4,0.8c0.1,0.3,0.1,0.6,0.2,1.1c0,0.4,0.1,0.9,0.1,1.5c0,0.6,0,1.1-0.1,1.6
				c-0.1,0.5-0.2,0.9-0.3,1.2c-0.1,0.3-0.3,0.6-0.5,0.8c-0.2,0.2-0.5,0.3-0.8,0.3c-0.4,0-1-0.3-1.8-0.8c-0.8-0.5-1.8-1.1-3.1-1.8
				c-1.3-0.6-2.8-1.2-4.5-1.8c-1.8-0.5-3.8-0.8-6.1-0.8c-2.3,0-4.3,0.3-6,0.8c-1.7,0.5-3.2,1.3-4.3,2.3c-1.1,1-2,2.1-2.5,3.4
				c-0.6,1.3-0.8,2.8-0.8,4.3c0,2.1,0.5,4,1.5,5.4c1,1.5,2.3,2.7,3.9,3.8s3.4,2,5.5,2.9s4.1,1.7,6.3,2.5s4.2,1.7,6.3,2.7
				s3.9,2.2,5.5,3.6c1.6,1.4,2.9,3.1,3.9,5.1S1241.3-731.3,1241.3-728.5L1241.3-728.5z"/>
			<path id="path3911" inkscape:connector-curvature="0" d="M1256-741.3c0-1.8,0.5-3,1.4-3.6c0.9-0.7,1.8-1,2.7-1h45.2
				c0-3.9-0.4-7.5-1.2-10.7c-0.8-3.2-2.1-6-4-8.3c-1.8-2.3-4.2-4.1-7-5.4c-2.9-1.3-6.4-1.9-10.5-1.9c-3.2,0-6.1,0.3-8.6,0.9
				c-2.5,0.6-4.6,1.2-6.4,2c-1.8,0.7-3.3,1.4-4.4,2c-1.1,0.6-1.9,0.9-2.4,0.9c-0.6,0-1.1-0.3-1.4-0.9c-0.3-0.6-0.4-1.6-0.4-3.1
				c0-1.5,0.4-2.6,1.1-3.4c0.3-0.3,1.1-0.8,2.3-1.4c1.2-0.6,2.9-1.3,4.9-1.9c2.1-0.7,4.4-1.2,7.2-1.7c2.7-0.5,5.8-0.7,9.1-0.7
				c10,0,17.6,3,23,9.1c5.4,6.1,8.1,15,8.1,26.6c0,5.6-0.7,10.6-2.2,15.1c-1.5,4.4-3.5,8.2-6.2,11.3c-2.7,3.1-5.9,5.5-9.7,7.1
				s-8,2.5-12.6,2.5c-5,0-9.2-0.9-12.7-2.6s-6.4-4-8.7-6.9s-3.9-6.2-5-10s-1.6-7.8-1.6-11.9V-741.3z M1265-738.8
				c-0.1,7.3,1.5,12.9,4.8,17s8.3,6.1,14.7,6.1c3.3,0,6.2-0.6,8.8-1.9s4.7-2.9,6.4-5c1.8-2.1,3.1-4.6,4-7.4c0.9-2.8,1.4-5.7,1.5-8.8
				H1265z"/>
			<path id="path3913" inkscape:connector-curvature="0" d="M1343.2-710.8c0,0.3-0.1,0.6-0.2,0.8c-0.1,0.2-0.4,0.4-0.7,0.6
				s-0.8,0.3-1.3,0.4c-0.6,0.1-1.3,0.1-2.2,0.1c-0.8,0-1.5,0-2.1-0.1c-0.6-0.1-1-0.2-1.4-0.4c-0.3-0.1-0.6-0.3-0.7-0.6
				c-0.1-0.2-0.2-0.5-0.2-0.8v-98.7c0-0.3,0.1-0.6,0.2-0.8c0.1-0.2,0.4-0.5,0.7-0.6c0.3-0.2,0.8-0.3,1.4-0.4
				c0.6-0.1,1.3-0.1,2.1-0.1c0.9,0,1.6,0,2.2,0.1c0.6,0.1,1,0.2,1.3,0.4c0.3,0.2,0.5,0.4,0.7,0.6c0.1,0.2,0.2,0.5,0.2,0.8V-710.8z"
				/>
			<path id="path3915" inkscape:connector-curvature="0" d="M1398.3-692.4c-0.2,0.6-0.4,1-0.7,1.4s-0.6,0.6-1,0.8
				c-0.4,0.2-0.8,0.3-1.3,0.4s-1.1,0.1-1.9,0.1s-1.4-0.1-1.9-0.2c-0.6-0.1-1-0.4-1.4-0.6s-0.5-0.6-0.6-1c-0.1-0.4,0-0.9,0.3-1.4
				l44.7-120.7c0.2-0.6,0.4-1,0.7-1.4c0.2-0.3,0.5-0.6,0.9-0.8c0.4-0.2,0.8-0.3,1.4-0.4c0.5-0.1,1.2-0.1,1.9-0.1
				c0.7,0,1.4,0.1,1.9,0.2c0.5,0.1,1,0.4,1.3,0.6c0.3,0.3,0.5,0.6,0.6,1c0.1,0.4,0,0.9-0.1,1.4L1398.3-692.4z"/>
		</g>
		<g id="text3053">
		</g>
	</g>
</g>
</svg>
